<svg xmlns="http://www.w3.org/2000/svg" xmlns:osb="http://www.openswatchbook.org/uri/2009/osb" xmlns:svg="http://www.w3.org/2000/svg" xmlns:xlink="http://www.w3.org/1999/xlink" id="svg3081" width="10400" height="7400" version="1.1"><defs id="defs3083"><linearGradient id="linearGradient4277" osb:paint="solid"><stop id="stop4279" offset="0" stop-color="#000" stop-opacity="1"/></linearGradient><linearGradient id="linearGradient4271" osb:paint="solid"><stop id="stop4273" offset="0" stop-color="#000" stop-opacity="0"/></linearGradient><marker id="Arrow2Mend" orient="auto" overflow="visible" refX="0" refY="0"><path id="path4485" fill-rule="evenodd" stroke-linejoin="round" stroke-width=".625" d="M 8.7185878,4.0337352 -2.2072895,0.01601326 8.7185884,-4.0017078 c -1.7454984,2.3720609 -1.7354408,5.6174519 -6e-7,8.035443 z" transform="scale(-0.6,-0.6)"/></marker><marker id="Arrow2Mstart" orient="auto" overflow="visible" refX="0" refY="0"><path id="path4482" fill-rule="evenodd" stroke-linejoin="round" stroke-width=".625" d="M 8.7185878,4.0337352 -2.2072895,0.01601326 8.7185884,-4.0017078 c -1.7454984,2.3720609 -1.7354408,5.6174519 -6e-7,8.035443 z" transform="scale(0.6,0.6)"/></marker><marker id="Arrow2Sstart" orient="auto" overflow="visible" refX="0" refY="0"><path id="path4488" fill-rule="evenodd" stroke-linejoin="round" stroke-width=".625" d="M 8.7185878,4.0337352 -2.2072895,0.01601326 8.7185884,-4.0017078 c -1.7454984,2.3720609 -1.7354408,5.6174519 -6e-7,8.035443 z" transform="matrix(0.3,0,0,0.3,-0.69,0)"/></marker><marker id="Arrow1Sstart" orient="auto" overflow="visible" refX="0" refY="0"><path id="path4470" fill-rule="evenodd" stroke="#000" stroke-width="1pt" d="M 0,0 5,-5 -12.5,0 5,5 0,0 z" transform="matrix(0.2,0,0,0.2,1.2,0)"/></marker><marker id="Arrow2Lend" orient="auto" overflow="visible" refX="0" refY="0"><path id="path4479" fill-rule="evenodd" stroke-linejoin="round" stroke-width=".625" d="M 8.7185878,4.0337352 -2.2072895,0.01601326 8.7185884,-4.0017078 c -1.7454984,2.3720609 -1.7354408,5.6174519 -6e-7,8.035443 z" transform="matrix(-1.1,0,0,-1.1,-1.1,0)"/></marker><marker id="Arrow2Lstart" orient="auto" overflow="visible" refX="0" refY="0"><path id="path4476" fill-rule="evenodd" stroke-linejoin="round" stroke-width=".625" d="M 8.7185878,4.0337352 -2.2072895,0.01601326 8.7185884,-4.0017078 c -1.7454984,2.3720609 -1.7354408,5.6174519 -6e-7,8.035443 z" transform="matrix(1.1,0,0,1.1,1.1,0)"/></marker><marker id="Arrow1Lend" orient="auto" overflow="visible" refX="0" refY="0"><path id="path4461" fill-rule="evenodd" stroke="#000" stroke-width="1pt" d="M 0,0 5,-5 -12.5,0 5,5 0,0 z" transform="matrix(-0.8,0,0,-0.8,-10,0)"/></marker><marker id="Arrow1Lstart" orient="auto" overflow="visible" refX="0" refY="0"><path id="path4458" fill-rule="evenodd" stroke="#000" stroke-width="1pt" d="M 0,0 5,-5 -12.5,0 5,5 0,0 z" transform="matrix(0.8,0,0,0.8,10,0)"/></marker><marker id="Arrow2Lstart-7" orient="auto" overflow="visible" refX="0" refY="0"><path id="path4476-2" fill-rule="evenodd" stroke-linejoin="round" stroke-width=".625" d="M 8.7185878,4.0337352 -2.2072895,0.01601326 8.7185884,-4.0017078 c -1.7454984,2.3720609 -1.7354408,5.6174519 -6e-7,8.035443 z" transform="matrix(1.1,0,0,1.1,1.1,0)"/></marker><marker id="Arrow2Lend-6" orient="auto" overflow="visible" refX="0" refY="0"><path id="path4479-3" fill-rule="evenodd" stroke-linejoin="round" stroke-width=".625" d="M 8.7185878,4.0337352 -2.2072895,0.01601326 8.7185884,-4.0017078 c -1.7454984,2.3720609 -1.7354408,5.6174519 -6e-7,8.035443 z" transform="matrix(-1.1,0,0,-1.1,-1.1,0)"/></marker><marker id="Arrow2Lstart-8" orient="auto" overflow="visible" refX="0" refY="0"><path id="path4476-3" fill-rule="evenodd" stroke-linejoin="round" stroke-width=".625" d="M 8.7185878,4.0337352 -2.2072895,0.01601326 8.7185884,-4.0017078 c -1.7454984,2.3720609 -1.7354408,5.6174519 -6e-7,8.035443 z" transform="matrix(1.1,0,0,1.1,1.1,0)"/></marker><marker id="Arrow2Lend-7" orient="auto" overflow="visible" refX="0" refY="0"><path id="path4479-0" fill-rule="evenodd" stroke-linejoin="round" stroke-width=".625" d="M 8.7185878,4.0337352 -2.2072895,0.01601326 8.7185884,-4.0017078 c -1.7454984,2.3720609 -1.7354408,5.6174519 -6e-7,8.035443 z" transform="matrix(-1.1,0,0,-1.1,-1.1,0)"/></marker><marker id="Arrow2Lstart-6" orient="auto" overflow="visible" refX="0" refY="0"><path id="path4476-0" fill-rule="evenodd" stroke-linejoin="round" stroke-width=".625" d="M 8.7185878,4.0337352 -2.2072895,0.01601326 8.7185884,-4.0017078 c -1.7454984,2.3720609 -1.7354408,5.6174519 -6e-7,8.035443 z" transform="matrix(1.1,0,0,1.1,1.1,0)"/></marker><marker id="Arrow2Lend-5" orient="auto" overflow="visible" refX="0" refY="0"><path id="path4479-5" fill-rule="evenodd" stroke-linejoin="round" stroke-width=".625" d="M 8.7185878,4.0337352 -2.2072895,0.01601326 8.7185884,-4.0017078 c -1.7454984,2.3720609 -1.7354408,5.6174519 -6e-7,8.035443 z" transform="matrix(-1.1,0,0,-1.1,-1.1,0)"/></marker><marker id="Arrow2Lstart-62" orient="auto" overflow="visible" refX="0" refY="0"><path id="path4476-36" fill-rule="evenodd" stroke-linejoin="round" stroke-width=".625" d="M 8.7185878,4.0337352 -2.2072895,0.01601326 8.7185884,-4.0017078 c -1.7454984,2.3720609 -1.7354408,5.6174519 -6e-7,8.035443 z" transform="matrix(1.1,0,0,1.1,1.1,0)"/></marker><marker id="Arrow2Lend-8" orient="auto" overflow="visible" refX="0" refY="0"><path id="path4479-4" fill-rule="evenodd" stroke-linejoin="round" stroke-width=".625" d="M 8.7185878,4.0337352 -2.2072895,0.01601326 8.7185884,-4.0017078 c -1.7454984,2.3720609 -1.7354408,5.6174519 -6e-7,8.035443 z" transform="matrix(-1.1,0,0,-1.1,-1.1,0)"/></marker><marker id="Arrow2Lstart-624" orient="auto" overflow="visible" refX="0" refY="0"><path id="path4476-6" fill-rule="evenodd" stroke-linejoin="round" stroke-width=".625" d="M 8.7185878,4.0337352 -2.2072895,0.01601326 8.7185884,-4.0017078 c -1.7454984,2.3720609 -1.7354408,5.6174519 -6e-7,8.035443 z" transform="matrix(1.1,0,0,1.1,1.1,0)"/></marker><marker id="Arrow2Lend-81" orient="auto" overflow="visible" refX="0" refY="0"><path id="path4479-1" fill-rule="evenodd" stroke-linejoin="round" stroke-width=".625" d="M 8.7185878,4.0337352 -2.2072895,0.01601326 8.7185884,-4.0017078 c -1.7454984,2.3720609 -1.7354408,5.6174519 -6e-7,8.035443 z" transform="matrix(-1.1,0,0,-1.1,-1.1,0)"/></marker><marker id="Arrow2Lstart-68" orient="auto" overflow="visible" refX="0" refY="0"><path id="path4476-5" fill-rule="evenodd" stroke-linejoin="round" stroke-width=".625" d="M 8.7185878,4.0337352 -2.2072895,0.01601326 8.7185884,-4.0017078 c -1.7454984,2.3720609 -1.7354408,5.6174519 -6e-7,8.035443 z" transform="matrix(1.1,0,0,1.1,1.1,0)"/></marker><marker id="Arrow2Lend-9" orient="auto" overflow="visible" refX="0" refY="0"><path id="path4479-7" fill-rule="evenodd" stroke-linejoin="round" stroke-width=".625" d="M 8.7185878,4.0337352 -2.2072895,0.01601326 8.7185884,-4.0017078 c -1.7454984,2.3720609 -1.7354408,5.6174519 -6e-7,8.035443 z" transform="matrix(-1.1,0,0,-1.1,-1.1,0)"/></marker><marker id="Arrow2Lstart-625" orient="auto" overflow="visible" refX="0" refY="0"><path id="path4476-39" fill-rule="evenodd" stroke-linejoin="round" stroke-width=".625" d="M 8.7185878,4.0337352 -2.2072895,0.01601326 8.7185884,-4.0017078 c -1.7454984,2.3720609 -1.7354408,5.6174519 -6e-7,8.035443 z" transform="matrix(1.1,0,0,1.1,1.1,0)"/></marker><marker id="Arrow2Lend-1" orient="auto" overflow="visible" refX="0" refY="0"><path id="path4479-2" fill-rule="evenodd" stroke-linejoin="round" stroke-width=".625" d="M 8.7185878,4.0337352 -2.2072895,0.01601326 8.7185884,-4.0017078 c -1.7454984,2.3720609 -1.7354408,5.6174519 -6e-7,8.035443 z" transform="matrix(-1.1,0,0,-1.1,-1.1,0)"/></marker><marker id="Arrow2Lstart-5" orient="auto" overflow="visible" refX="0" refY="0"><path id="path4476-4" fill-rule="evenodd" stroke-linejoin="round" stroke-width=".625" d="M 8.7185878,4.0337352 -2.2072895,0.01601326 8.7185884,-4.0017078 c -1.7454984,2.3720609 -1.7354408,5.6174519 -6e-7,8.035443 z" transform="matrix(1.1,0,0,1.1,1.1,0)"/></marker><marker id="Arrow2Lend-4" orient="auto" overflow="visible" refX="0" refY="0"><path id="path4479-9" fill-rule="evenodd" stroke-linejoin="round" stroke-width=".625" d="M 8.7185878,4.0337352 -2.2072895,0.01601326 8.7185884,-4.0017078 c -1.7454984,2.3720609 -1.7354408,5.6174519 -6e-7,8.035443 z" transform="matrix(-1.1,0,0,-1.1,-1.1,0)"/></marker><marker id="Arrow2Lstart-73" orient="auto" overflow="visible" refX="0" refY="0"><path id="path4476-9" fill-rule="evenodd" stroke-linejoin="round" stroke-width=".625" d="M 8.7185878,4.0337352 -2.2072895,0.01601326 8.7185884,-4.0017078 c -1.7454984,2.3720609 -1.7354408,5.6174519 -6e-7,8.035443 z" transform="matrix(1.1,0,0,1.1,1.1,0)"/></marker><marker id="Arrow2Lend-3" orient="auto" overflow="visible" refX="0" refY="0"><path id="path4479-14" fill-rule="evenodd" stroke-linejoin="round" stroke-width=".625" d="M 8.7185878,4.0337352 -2.2072895,0.01601326 8.7185884,-4.0017078 c -1.7454984,2.3720609 -1.7354408,5.6174519 -6e-7,8.035443 z" transform="matrix(-1.1,0,0,-1.1,-1.1,0)"/></marker><marker id="Arrow2Lstart-50" orient="auto" overflow="visible" refX="0" refY="0"><path id="path4476-33" fill-rule="evenodd" stroke-linejoin="round" stroke-width=".625" d="M 8.7185878,4.0337352 -2.2072895,0.01601326 8.7185884,-4.0017078 c -1.7454984,2.3720609 -1.7354408,5.6174519 -6e-7,8.035443 z" transform="matrix(1.1,0,0,1.1,1.1,0)"/></marker><marker id="Arrow2Lend-30" orient="auto" overflow="visible" refX="0" refY="0"><path id="path4479-8" fill-rule="evenodd" stroke-linejoin="round" stroke-width=".625" d="M 8.7185878,4.0337352 -2.2072895,0.01601326 8.7185884,-4.0017078 c -1.7454984,2.3720609 -1.7354408,5.6174519 -6e-7,8.035443 z" transform="matrix(-1.1,0,0,-1.1,-1.1,0)"/></marker><marker id="Arrow2Lstart-9" orient="auto" overflow="visible" refX="0" refY="0"><path id="path4476-91" fill-rule="evenodd" stroke-linejoin="round" stroke-width=".625" d="M 8.7185878,4.0337352 -2.2072895,0.01601326 8.7185884,-4.0017078 c -1.7454984,2.3720609 -1.7354408,5.6174519 -6e-7,8.035443 z" transform="matrix(1.1,0,0,1.1,1.1,0)"/></marker><marker id="Arrow2Lend-93" orient="auto" overflow="visible" refX="0" refY="0"><path id="path4479-18" fill-rule="evenodd" stroke-linejoin="round" stroke-width=".625" d="M 8.7185878,4.0337352 -2.2072895,0.01601326 8.7185884,-4.0017078 c -1.7454984,2.3720609 -1.7354408,5.6174519 -6e-7,8.035443 z" transform="matrix(-1.1,0,0,-1.1,-1.1,0)"/></marker><marker id="Arrow2Mstart-4" orient="auto" overflow="visible" refX="0" refY="0"><path id="path4482-4" fill-rule="evenodd" stroke-linejoin="round" stroke-width=".625" d="M 8.7185878,4.0337352 -2.2072895,0.01601326 8.7185884,-4.0017078 c -1.7454984,2.3720609 -1.7354408,5.6174519 -6e-7,8.035443 z" transform="scale(0.6,0.6)"/></marker><marker id="Arrow2Mend-3" orient="auto" overflow="visible" refX="0" refY="0"><path id="path4485-7" fill-rule="evenodd" stroke-linejoin="round" stroke-width=".625" d="M 8.7185878,4.0337352 -2.2072895,0.01601326 8.7185884,-4.0017078 c -1.7454984,2.3720609 -1.7354408,5.6174519 -6e-7,8.035443 z" transform="scale(-0.6,-0.6)"/></marker><marker id="Arrow2Mend-31" orient="auto" overflow="visible" refX="0" refY="0"><path id="path4485-5" fill-rule="evenodd" stroke-linejoin="round" stroke-width=".625" d="M 8.7185878,4.0337352 -2.2072895,0.01601326 8.7185884,-4.0017078 c -1.7454984,2.3720609 -1.7354408,5.6174519 -6e-7,8.035443 z" transform="scale(-0.6,-0.6)"/></marker><linearGradient id="linearGradient4275" x1="383.596" x2="4438.941" y1="2591.689" y2="2591.689" gradientTransform="matrix(2.3775507,0,0,1.5055393,-532.91326,-6549.5284)" gradientUnits="userSpaceOnUse" xlink:href="#linearGradient4271"/><linearGradient id="linearGradient4281" x1="383.596" x2="4438.941" y1="2591.689" y2="2591.689" gradientTransform="matrix(2.3775507,0,0,1.5055393,-532.91326,-6549.5284)" gradientUnits="userSpaceOnUse" xlink:href="#linearGradient4277"/><marker id="Arrow2Lstart-67" orient="auto" overflow="visible" refX="0" refY="0"><path id="path4476-53" fill-rule="evenodd" stroke-linejoin="round" stroke-width=".625" d="M 8.7185878,4.0337352 -2.2072895,0.01601326 8.7185884,-4.0017078 c -1.7454984,2.3720609 -1.7354408,5.6174519 -6e-7,8.035443 z" transform="matrix(1.1,0,0,1.1,1.1,0)"/></marker><marker id="Arrow2Lend-56" orient="auto" overflow="visible" refX="0" refY="0"><path id="path4479-29" fill-rule="evenodd" stroke-linejoin="round" stroke-width=".625" d="M 8.7185878,4.0337352 -2.2072895,0.01601326 8.7185884,-4.0017078 c -1.7454984,2.3720609 -1.7354408,5.6174519 -6e-7,8.035443 z" transform="matrix(-1.1,0,0,-1.1,-1.1,0)"/></marker></defs><metadata id="metadata3086"/><g id="layer1" transform="translate(0,6347.6378)"><rect id="rect4367" width="10400" height="7400" x="5" y="-6352.638" fill="#00c100" fill-opacity="1" stroke="none"/><rect id="rect3303" width="9639.411" height="6639.412" x="380.294" y="-5967.344" fill="url(#linearGradient4275)" fill-opacity="1" fill-rule="evenodd" stroke="url(#linearGradient4281)" stroke-dasharray="none" stroke-linecap="butt" stroke-linejoin="miter" stroke-miterlimit="4" stroke-opacity="1" stroke-width="40.589"/><rect id="rect4371" width="9600" height="6600" x="400" y="-5947.638" fill="#00b000" fill-opacity="1" stroke="none"/><g id="g4500"><g id="g4488" transform="translate(10,0)"><rect id="rect3089" width="8989.512" height="5989.512" x="689.244" y="-5622.394" fill="#0a0" fill-opacity="1" stroke="#fff" stroke-dasharray="20.977 10.488" stroke-dashoffset="0" stroke-linecap="square" stroke-linejoin="miter" stroke-miterlimit="0" stroke-opacity="1" stroke-width="10.488" ry="14.464"/><rect id="rect4369" width="10" height="6000" x="5179" y="-5622.638" fill="#fff" fill-opacity="1" stroke="none"/><ellipse id="path4392" cx="5184" cy="-2650.35" fill="none" stroke="#fff" stroke-dasharray="none" stroke-miterlimit="4" stroke-opacity="1" stroke-width="10" rx="497.712" ry="497.712"/></g><rect id="rect4418" width="9000" height="10" x="692" y="-2652.638" fill="#fff" fill-opacity="1" stroke="none"/><rect id="rect3089-3" width="994.434" height="1994.434" x="699" y="-3644.855" fill="none" stroke="#fff" stroke-dasharray="20 10" stroke-dashoffset="0" stroke-linecap="square" stroke-linejoin="miter" stroke-miterlimit="0" stroke-opacity="1" stroke-width="10" ry="4.816"/><rect id="rect3089-3-2" width="994.434" height="1994.434" x="8695" y="-3644.855" fill="none" stroke="#fff" stroke-dasharray="20 10" stroke-dashoffset="0" stroke-linecap="square" stroke-linejoin="miter" stroke-miterlimit="0" stroke-opacity="1" stroke-width="10" ry="4.816"/></g><path id="path4452" fill="none" stroke="#000" stroke-dasharray="none" stroke-linecap="butt" stroke-linejoin="miter" stroke-miterlimit="4" stroke-opacity="1" stroke-width="15" marker-end="url(#Arrow2Lend)" marker-start="url(#Arrow2Lstart)" d="m 3100.8436,-5607.4508 0,5959.8625"/><path id="path4452-5" fill="none" stroke="#000" stroke-dasharray="none" stroke-linecap="butt" stroke-linejoin="miter" stroke-miterlimit="4" stroke-opacity="1" stroke-width="15" marker-end="url(#Arrow2Lend)" marker-start="url(#Arrow2Lstart)" d="m 713.69729,-5024.9808 8959.26881,0"/><path id="path4452-5-3" fill="none" stroke="#000" stroke-dasharray="none" stroke-linecap="butt" stroke-linejoin="miter" stroke-miterlimit="4" stroke-opacity="1" stroke-width="12.5" marker-end="url(#Arrow2Lend)" marker-start="url(#Arrow2Lstart)" d="m 4818.9057,-2962.5224 747.0738,627.9137"/><path id="path4452-4" fill="none" stroke="#000" stroke-dasharray="none" stroke-linecap="butt" stroke-linejoin="miter" stroke-miterlimit="4" stroke-opacity="1" stroke-width="15" marker-end="url(#Arrow2Lend)" marker-start="url(#Arrow2Lstart)" d="m 77.711065,1032.4826 0,-7360.2407"/><path id="path4452-5-5" fill="none" stroke="#000" stroke-dasharray="none" stroke-linecap="butt" stroke-linejoin="miter" stroke-miterlimit="4" stroke-opacity="1" stroke-width="15.708" marker-end="url(#Arrow2Lend)" marker-start="url(#Arrow2Lstart)" d="m 20.860667,-6027.3364 10356.886333,0"/><path id="path4452-5-7" fill="none" stroke="#000" stroke-dasharray="none" stroke-linecap="butt" stroke-linejoin="miter" stroke-miterlimit="4" stroke-opacity="1" stroke-width="10" marker-end="url(#Arrow2Lend)" marker-start="url(#Arrow2Lstart)" d="m 9708.4858,7.9911128 682.3662,0"/><path id="path4452-5-7-6" fill="none" stroke="#000" stroke-dasharray="none" stroke-linecap="butt" stroke-linejoin="miter" stroke-miterlimit="4" stroke-opacity="1" stroke-width="10.093" marker-end="url(#Arrow2Mend)" marker-start="url(#Arrow2Mstart)" d="m 9707.7437,-274.77966 317.2733,0"/><g id="g4272" transform="translate(4,0)"><rect id="rect7139" width="200" height="20" x="490" y="-3167.638" fill="#806600" fill-opacity="1" stroke="none"/><rect id="rect7139-2" width="200" height="20" x="490" y="-2147.638" fill="#806600" fill-opacity="1" stroke="none"/><rect id="rect7139-2-6" width="20" height="1000" x="490" y="-3147.638" fill="#806600" fill-opacity="1" stroke="none"/></g><g id="g4280" transform="translate(-6,0)"><rect id="rect7139-27" width="200" height="20" x="-9900" y="-3167.638" fill="#806600" fill-opacity="1" stroke="none" transform="scale(-1,1)"/><rect id="rect7139-2-64" width="200" height="20" x="-9900" y="-2147.638" fill="#806600" fill-opacity="1" stroke="none" transform="scale(-1,1)"/><rect id="rect7139-2-6-5" width="20" height="1000" x="-9900" y="-3147.638" fill="#806600" fill-opacity="1" stroke="none" transform="scale(-1,1)"/></g><path id="path4452-2-9" fill="none" stroke="#000" stroke-dasharray="none" stroke-linecap="butt" stroke-linejoin="miter" stroke-miterlimit="4" stroke-opacity="1" stroke-width="10.09" marker-end="url(#Arrow2Mend)" marker-start="url(#Arrow2Mstart)" d="m 558.42074,-3134.4128 0,973.317"/><path id="path4452-2-5" fill="none" stroke="#000" stroke-dasharray="none" stroke-linecap="butt" stroke-linejoin="miter" stroke-miterlimit="4" stroke-opacity="1" stroke-width="10" marker-end="url(#Arrow2Mend)" marker-start="none" d="m 4209.0809,201.863 0,155.31324"/><path id="path4452-2-5-2" fill="none" stroke="#000" stroke-dasharray="none" stroke-linecap="butt" stroke-linejoin="miter" stroke-miterlimit="4" stroke-opacity="1" stroke-width="10" marker-end="url(#Arrow2Mend)" marker-start="none" d="m 4209.2789,549.6097 0,-155.3132"/><text id="text8102" x="3533.333" y="-6080.971" fill="#000" fill-opacity="1" stroke="none" font-family="Times New Roman" font-size="200" font-style="normal" font-weight="normal" letter-spacing="0" word-spacing="0" xml:space="preserve" style="line-height:125%;-inkscape-font-specification:Times New Roman"><tspan id="tspan8106" x="3533.333" y="-6080.971" font-family="Verdana" font-stretch="normal" font-style="normal" font-variant="normal" font-weight="normal" style="-inkscape-font-specification:Verdana">10400</tspan></text><text id="text8110" x="4205.906" y="263.004" fill="#000" fill-opacity="1" stroke="none" font-family="Times New Roman" font-size="200" font-style="normal" font-weight="normal" letter-spacing="0" transform="matrix(0,-1,1,0,0,0)" word-spacing="0" xml:space="preserve" style="line-height:125%;-inkscape-font-specification:Times New Roman"><tspan style="-inkscape-font-specification:Verdana" id="tspan8112" x="4205.906" y="263.004" font-family="Verdana" font-stretch="normal" font-style="normal" font-variant="normal" font-weight="normal">7400</tspan></text><text id="text8114" x="3791.667" y="1583.333" fill="#000" fill-opacity="1" stroke="none" font-family="Verdana" font-size="200" font-stretch="normal" font-style="normal" font-variant="normal" font-weight="normal" letter-spacing="0" transform="translate(0,-6347.6378)" word-spacing="0" xml:space="preserve" style="line-height:125%;-inkscape-font-specification:Verdana"><tspan id="tspan8118" x="3791.667" y="1583.333">9000</tspan></text><text id="text8122" x="3200" y="2583.333" fill="#000" fill-opacity="1" stroke="none" font-family="Verdana" font-size="200" font-stretch="normal" font-style="normal" font-variant="normal" font-weight="normal" letter-spacing="0" transform="translate(0,-6347.6378)" word-spacing="0" xml:space="preserve" style="line-height:125%;-inkscape-font-specification:Verdana"><tspan id="tspan8124" x="3200" y="2583.333">6000</tspan></text><text id="text8130" x="1017.667" y="-3473.638" fill="#000" fill-opacity="1" stroke="none" font-family="Verdana" font-size="200" font-stretch="normal" font-style="normal" font-variant="normal" font-weight="normal" letter-spacing="0" word-spacing="0" xml:space="preserve" style="line-height:125%;-inkscape-font-specification:Verdana"><tspan id="tspan8132" x="1017.667" y="-3473.638" font-size="125">1000</tspan></text><text id="text8142" x="551.185" y="-2735.971" fill="#000" fill-opacity="1" stroke="none" font-family="Verdana" font-size="200" font-stretch="normal" font-style="normal" font-variant="normal" font-weight="normal" letter-spacing="0" word-spacing="0" xml:space="preserve" style="line-height:125%;-inkscape-font-specification:Verdana"><tspan id="tspan8144" x="551.185" y="-2735.971" font-size="125">1000</tspan></text><text id="text8146" x="4275" y="6891.667" fill="#000" fill-opacity="1" stroke="none" font-family="Verdana" font-size="125" font-stretch="normal" font-style="normal" font-variant="normal" font-weight="normal" letter-spacing="0" transform="translate(0,-6347.6378)" word-spacing="0" xml:space="preserve" style="line-height:125%;-inkscape-font-specification:Verdana"><tspan id="tspan8148" x="4275" y="6891.667" font-size="200">10</tspan></text><text id="text8150" x="9731.233" y="-322.638" fill="#000" fill-opacity="1" stroke="none" font-family="Verdana" font-size="125" font-stretch="normal" font-style="normal" font-variant="normal" font-weight="normal" letter-spacing="0" word-spacing="0" xml:space="preserve" style="line-height:125%;-inkscape-font-specification:Verdana"><tspan id="tspan8152" x="9731.233" y="-322.638">300</tspan></text><text id="text8154" x="10041.434" y="-5.971" fill="#000" fill-opacity="1" stroke="none" font-family="Verdana" font-size="125" font-stretch="normal" font-style="normal" font-variant="normal" font-weight="normal" letter-spacing="0" word-spacing="0" xml:space="preserve" style="line-height:125%;-inkscape-font-specification:Verdana"><tspan id="tspan8156" x="10041.434" y="-5.971">700</tspan></text><text id="text8158" x="5170.249" y="-2679.856" fill="#000" fill-opacity="1" stroke="none" font-family="Verdana" font-size="200" font-stretch="normal" font-style="normal" font-variant="normal" font-weight="normal" letter-spacing="0" word-spacing="0" xml:space="preserve" style="line-height:125%;-inkscape-font-specification:Verdana"><tspan id="tspan8160" x="5170.249" y="-2679.856">1000</tspan></text><path id="path4452-1" fill="none" stroke="#000" stroke-dasharray="none" stroke-linecap="butt" stroke-linejoin="miter" stroke-miterlimit="4" stroke-opacity="1" stroke-width="10" marker-end="url(#Arrow2Mend-31)" marker-start="url(#Arrow2Mstart-4)" d="m 1581.6168,-3637.225 0,1978.5765"/><text id="text8130-7" x="1210.922" y="-1839.758" fill="#000" fill-opacity="1" stroke="none" font-family="Verdana" font-size="200" font-stretch="normal" font-style="normal" font-variant="normal" font-weight="normal" letter-spacing="0" word-spacing="0" xml:space="preserve" style="line-height:125%;-inkscape-font-specification:Verdana"><tspan id="tspan8132-0" x="1210.922" y="-1839.758" font-size="125">2000</tspan></text><path id="path4452-5-3-6-0" fill="none" stroke="#000" stroke-dasharray="none" stroke-linecap="butt" stroke-linejoin="miter" stroke-miterlimit="4" stroke-opacity="1" stroke-width="10" marker-end="url(#Arrow2Mend)" marker-start="url(#Arrow2Mstart)" d="m 692.51253,-3403.3854 977.36787,0"/></g></svg>