<svg xmlns="http://www.w3.org/2000/svg" xmlns:svg="http://www.w3.org/2000/svg" id="svg2" width="3897.638" height="1417.323" version="1.1"><defs id="defs4"><marker id="Arrow1Mstart" orient="auto" overflow="visible" refX="0" refY="0"><path id="path4026" fill-rule="evenodd" stroke="#000" stroke-width="1pt" d="M 0.0,0.0 L 5.0,-5.0 L -12.5,0.0 L 5.0,5.0 L 0.0,0.0 z" transform="scale(0.4) translate(10,0)"/></marker><marker id="Arrow2Mstart" orient="auto" overflow="visible" refX="0" refY="0"><path id="path3858" fill-rule="evenodd" stroke-linejoin="round" stroke-width=".625" d="M 8.7185878,4.0337352 -2.2072895,0.01601326 8.7185884,-4.0017078 c -1.7454984,2.3720609 -1.7354408,5.6174519 -6e-7,8.035443 z" transform="scale(0.6,0.6)"/></marker><marker id="Arrow2Sstart" orient="auto" overflow="visible" refX="0" refY="0"><path id="path3864" fill-rule="evenodd" stroke-linejoin="round" stroke-width=".625" d="M 8.7185878,4.0337352 -2.2072895,0.01601326 8.7185884,-4.0017078 c -1.7454984,2.3720609 -1.7354408,5.6174519 -6e-7,8.035443 z" transform="matrix(0.3,0,0,0.3,-0.69,0)"/></marker><marker id="Arrow2Mend" orient="auto" overflow="visible" refX="0" refY="0"><path id="path3861" fill-rule="evenodd" stroke-linejoin="round" stroke-width=".625" d="M 8.7185878,4.0337352 -2.2072895,0.01601326 8.7185884,-4.0017078 c -1.7454984,2.3720609 -1.7354408,5.6174519 -6e-7,8.035443 z" transform="scale(-0.6,-0.6)"/></marker><marker id="Arrow2Send" orient="auto" overflow="visible" refX="0" refY="0"><path id="path3867" fill-rule="evenodd" stroke-linejoin="round" stroke-width=".625" d="M 8.7185878,4.0337352 -2.2072895,0.01601326 8.7185884,-4.0017078 c -1.7454984,2.3720609 -1.7354408,5.6174519 -6e-7,8.035443 z" transform="matrix(-0.3,0,0,-0.3,0.69,0)"/></marker><marker id="Arrow1Lend" orient="auto" overflow="visible" refX="0" refY="0"><path id="path3837" fill-rule="evenodd" stroke="#000" stroke-width="1pt" d="M 0,0 5,-5 -12.5,0 5,5 0,0 z" transform="matrix(-0.8,0,0,-0.8,-10,0)"/></marker><marker id="Arrow2Mend-8" orient="auto" overflow="visible" refX="0" refY="0"><path id="path3861-1" fill-rule="evenodd" stroke-linejoin="round" stroke-width=".625" d="M 8.7185878,4.0337352 -2.2072895,0.01601326 8.7185884,-4.0017078 c -1.7454984,2.3720609 -1.7354408,5.6174519 -6e-7,8.035443 z" transform="scale(-0.6,-0.6)"/></marker><marker id="Arrow2Mend-86" orient="auto" overflow="visible" refX="0" refY="0"><path id="path3861-4" fill-rule="evenodd" stroke-linejoin="round" stroke-width=".625" d="M 8.7185878,4.0337352 -2.2072895,0.01601326 8.7185884,-4.0017078 c -1.7454984,2.3720609 -1.7354408,5.6174519 -6e-7,8.035443 z" transform="scale(-0.6,-0.6)"/></marker><marker id="marker4684" orient="auto" overflow="visible" refX="0" refY="0"><path id="path4686" fill-rule="evenodd" stroke-linejoin="round" stroke-width=".625" d="M 8.7185878,4.0337352 -2.2072895,0.01601326 8.7185884,-4.0017078 c -1.7454984,2.3720609 -1.7354408,5.6174519 -6e-7,8.035443 z" transform="scale(-0.6,-0.6)"/></marker><marker id="Arrow2Mend-6" orient="auto" overflow="visible" refX="0" refY="0"><path id="path3861-2" fill-rule="evenodd" stroke-linejoin="round" stroke-width=".625" d="M 8.7185878,4.0337352 -2.2072895,0.01601326 8.7185884,-4.0017078 c -1.7454984,2.3720609 -1.7354408,5.6174519 -6e-7,8.035443 z" transform="scale(-0.6,-0.6)"/></marker><marker id="marker4725" orient="auto" overflow="visible" refX="0" refY="0"><path id="path4727" fill-rule="evenodd" stroke-linejoin="round" stroke-width=".625" d="M 8.7185878,4.0337352 -2.2072895,0.01601326 8.7185884,-4.0017078 c -1.7454984,2.3720609 -1.7354408,5.6174519 -6e-7,8.035443 z" transform="scale(-0.6,-0.6)"/></marker><marker id="Arrow2Mend-7" orient="auto" overflow="visible" refX="0" refY="0"><path id="path3861-12" fill-rule="evenodd" stroke-linejoin="round" stroke-width=".625" d="M 8.7185878,4.0337352 -2.2072895,0.01601326 8.7185884,-4.0017078 c -1.7454984,2.3720609 -1.7354408,5.6174519 -6e-7,8.035443 z" transform="scale(-0.6,-0.6)"/></marker><marker id="Arrow2Mstart-4" orient="auto" overflow="visible" refX="0" refY="0"><path id="path3858-4" fill-rule="evenodd" stroke-linejoin="round" stroke-width=".625" d="M 8.7185878,4.0337352 -2.2072895,0.01601326 8.7185884,-4.0017078 c -1.7454984,2.3720609 -1.7354408,5.6174519 -6e-7,8.035443 z" transform="scale(0.6,0.6)"/></marker><marker id="Arrow2Mend-5" orient="auto" overflow="visible" refX="0" refY="0"><path id="path3861-0" fill-rule="evenodd" stroke-linejoin="round" stroke-width=".625" d="M 8.7185878,4.0337352 -2.2072895,0.01601326 8.7185884,-4.0017078 c -1.7454984,2.3720609 -1.7354408,5.6174519 -6e-7,8.035443 z" transform="scale(-0.6,-0.6)"/></marker><marker id="Arrow2Mend-1" orient="auto" overflow="visible" refX="0" refY="0"><path id="path3861-3" fill-rule="evenodd" stroke-linejoin="round" stroke-width=".625" d="M 8.7185878,4.0337352 -2.2072895,0.01601326 8.7185884,-4.0017078 c -1.7454984,2.3720609 -1.7354408,5.6174519 -6e-7,8.035443 z" transform="scale(-0.6,-0.6)"/></marker></defs><metadata id="metadata7"/><g id="layer1" transform="translate(0,364.96089)"><rect id="rect2985" width="3897.638" height="35.433" x="0" y="708.268" fill="#fff" fill-opacity="1" stroke="none"/><rect id="rect2985-9" width="2799.213" height="70.866" x="485.951" y="-.393" fill="#0000a4" fill-opacity="1" stroke="none"/><rect id="rect2985-9-6" width="70.866" height="708.661" x="485.951" y="-.393" fill="#0000a4" fill-opacity="1" stroke="none"/><rect id="rect2985-9-6-2" width="70.866" height="708.661" x="3214.298" y="-.393" fill="#0000a4" fill-opacity="1" stroke="none"/><path id="path3828" fill="none" stroke="#000" stroke-dasharray="none" stroke-linecap="butt" stroke-linejoin="miter" stroke-miterlimit="4" stroke-opacity="1" stroke-width="17.717" marker-end="url(#Arrow2Mend)" d="m 186.02362,275.4526 276.62219,0"/><path id="path3828-4" fill="none" stroke="#000" stroke-dasharray="none" stroke-linecap="butt" stroke-linejoin="miter" stroke-miterlimit="4" stroke-opacity="1" stroke-width="17.717" marker-end="url(#Arrow2Mend)" d="m 858.71579,275.26099 -276.62215,0"/><path id="path3828-6" fill="none" stroke="#000" stroke-dasharray="none" stroke-linecap="butt" stroke-linejoin="miter" stroke-miterlimit="4" stroke-opacity="1" stroke-width="17.717" marker-end="url(#Arrow2Mend)" d="m 940.05129,-302.29145 0,276.62217"/><path id="path3828-4-2" fill="none" stroke="#000" stroke-dasharray="none" stroke-linecap="butt" stroke-linejoin="miter" stroke-miterlimit="4" stroke-opacity="1" stroke-width="17.717" marker-end="url(#Arrow2Mend)" d="m 940.24279,370.40073 0,-276.6222"/><path id="path3828-6-3" fill="none" stroke="#000" stroke-dasharray="none" stroke-linecap="butt" stroke-linejoin="miter" stroke-miterlimit="4" stroke-opacity="1" stroke-width="17.717" marker-end="url(#Arrow2Mend)" d="m 3406.9336,406.81155 0,276.62214"/><path id="path3828-4-2-6" fill="none" stroke="#000" stroke-dasharray="none" stroke-linecap="butt" stroke-linejoin="miter" stroke-miterlimit="4" stroke-opacity="1" stroke-width="17.717" marker-end="url(#Arrow2Mend)" d="m 3407.1251,1043.5037 0,-276.6222"/><path id="path3828-4-2-8" fill="none" stroke="#000" stroke-dasharray="none" stroke-linecap="butt" stroke-linejoin="miter" stroke-miterlimit="4" stroke-opacity="1" stroke-width="17.717" marker-end="url(#Arrow2Mend)" marker-start="url(#Arrow2Mstart)" d="m 2008.3066,680.60481 0,-590.80449"/><text id="text5208" x="974.104" y="-146.689" fill="#000" fill-opacity="1" stroke="none" font-family="Verdana" font-size="200" font-stretch="normal" font-style="normal" font-variant="normal" font-weight="normal" letter-spacing="0" word-spacing="0" xml:space="preserve" style="line-height:125%;-inkscape-font-specification:Verdana"><tspan id="tspan5210" x="974.104" y="-146.689">20</tspan></text><text id="text5212" x="2045.877" y="446.359" fill="#000" fill-opacity="1" stroke="none" font-family="Verdana" font-size="200" font-stretch="normal" font-style="normal" font-variant="normal" font-weight="normal" letter-spacing="0" word-spacing="0" xml:space="preserve" style="line-height:125%;-inkscape-font-specification:Verdana"><tspan id="tspan5214" x="2045.877" y="446.359">180</tspan></text><text id="text5216" x="3467.763" y="678.577" fill="#000" fill-opacity="1" stroke="none" font-family="Verdana" font-size="200" font-stretch="normal" font-style="normal" font-variant="normal" font-weight="normal" letter-spacing="0" word-spacing="0" xml:space="preserve" style="line-height:125%;-inkscape-font-specification:Verdana"><tspan id="tspan5218" x="3467.763" y="678.577">10</tspan></text><text id="text5208-4" x="184.661" y="199.258" fill="#000" fill-opacity="1" stroke="none" font-family="Verdana" font-size="200" font-stretch="normal" font-style="normal" font-variant="normal" font-weight="normal" letter-spacing="0" word-spacing="0" xml:space="preserve" style="line-height:125%;-inkscape-font-specification:Verdana"><tspan id="tspan5210-8" x="184.661" y="199.258">20</tspan></text><path id="path3828-4-6" fill="none" stroke="#000" stroke-dasharray="none" stroke-linecap="butt" stroke-linejoin="miter" stroke-miterlimit="4" stroke-opacity="1" stroke-width="17.717" marker-end="url(#Arrow2Mend)" marker-start="url(#Arrow2Mstart-4)" d="m 3191.5624,558.79978 -2612.41112,0"/><text id="text5212-8" x="1133.687" y="517.826" fill="#000" fill-opacity="1" stroke="none" font-family="Verdana" font-size="200" font-stretch="normal" font-style="normal" font-variant="normal" font-weight="normal" letter-spacing="0" word-spacing="0" xml:space="preserve" style="line-height:125%;-inkscape-font-specification:Verdana"><tspan id="tspan5214-7" x="1133.687" y="517.826">1000</tspan></text></g></svg>