<svg xmlns="http://www.w3.org/2000/svg" xmlns:osb="http://www.openswatchbook.org/uri/2009/osb" xmlns:svg="http://www.w3.org/2000/svg" xmlns:xlink="http://www.w3.org/1999/xlink" id="svg3081" width="13402.885" height="10402.144" version="1.1"><defs id="defs3083"><linearGradient id="linearGradient4277" osb:paint="solid"><stop id="stop4279" offset="0" stop-color="#000" stop-opacity="1"/></linearGradient><linearGradient id="linearGradient4271" osb:paint="solid"><stop id="stop4273" offset="0" stop-color="#000" stop-opacity="0"/></linearGradient><marker id="Arrow2Mend" orient="auto" overflow="visible" refX="0" refY="0"><path id="path4485" fill-rule="evenodd" stroke-linejoin="round" stroke-width=".625" d="M 8.7185878,4.0337352 -2.2072895,0.01601326 8.7185884,-4.0017078 c -1.7454984,2.3720609 -1.7354408,5.6174519 -6e-7,8.035443 z" transform="scale(-0.6,-0.6)"/></marker><marker id="Arrow2Mstart" orient="auto" overflow="visible" refX="0" refY="0"><path id="path4482" fill-rule="evenodd" stroke-linejoin="round" stroke-width=".625" d="M 8.7185878,4.0337352 -2.2072895,0.01601326 8.7185884,-4.0017078 c -1.7454984,2.3720609 -1.7354408,5.6174519 -6e-7,8.035443 z" transform="scale(0.6,0.6)"/></marker><marker id="Arrow2Sstart" orient="auto" overflow="visible" refX="0" refY="0"><path id="path4488" fill-rule="evenodd" stroke-linejoin="round" stroke-width=".625" d="M 8.7185878,4.0337352 -2.2072895,0.01601326 8.7185884,-4.0017078 c -1.7454984,2.3720609 -1.7354408,5.6174519 -6e-7,8.035443 z" transform="matrix(0.3,0,0,0.3,-0.69,0)"/></marker><marker id="Arrow1Sstart" orient="auto" overflow="visible" refX="0" refY="0"><path id="path4470" fill-rule="evenodd" stroke="#000" stroke-width="1pt" d="M 0,0 5,-5 -12.5,0 5,5 0,0 z" transform="matrix(0.2,0,0,0.2,1.2,0)"/></marker><marker id="Arrow2Lend" orient="auto" overflow="visible" refX="0" refY="0"><path id="path4479" fill-rule="evenodd" stroke-linejoin="round" stroke-width=".625" d="M 8.7185878,4.0337352 -2.2072895,0.01601326 8.7185884,-4.0017078 c -1.7454984,2.3720609 -1.7354408,5.6174519 -6e-7,8.035443 z" transform="matrix(-1.1,0,0,-1.1,-1.1,0)"/></marker><marker id="Arrow2Lstart" orient="auto" overflow="visible" refX="0" refY="0"><path id="path4476" fill-rule="evenodd" stroke-linejoin="round" stroke-width=".625" d="M 8.7185878,4.0337352 -2.2072895,0.01601326 8.7185884,-4.0017078 c -1.7454984,2.3720609 -1.7354408,5.6174519 -6e-7,8.035443 z" transform="matrix(1.1,0,0,1.1,1.1,0)"/></marker><marker id="Arrow1Lend" orient="auto" overflow="visible" refX="0" refY="0"><path id="path4461" fill-rule="evenodd" stroke="#000" stroke-width="1pt" d="M 0,0 5,-5 -12.5,0 5,5 0,0 z" transform="matrix(-0.8,0,0,-0.8,-10,0)"/></marker><marker id="Arrow1Lstart" orient="auto" overflow="visible" refX="0" refY="0"><path id="path4458" fill-rule="evenodd" stroke="#000" stroke-width="1pt" d="M 0,0 5,-5 -12.5,0 5,5 0,0 z" transform="matrix(0.8,0,0,0.8,10,0)"/></marker><marker id="Arrow2Lstart-7" orient="auto" overflow="visible" refX="0" refY="0"><path id="path4476-2" fill-rule="evenodd" stroke-linejoin="round" stroke-width=".625" d="M 8.7185878,4.0337352 -2.2072895,0.01601326 8.7185884,-4.0017078 c -1.7454984,2.3720609 -1.7354408,5.6174519 -6e-7,8.035443 z" transform="matrix(1.1,0,0,1.1,1.1,0)"/></marker><marker id="Arrow2Lend-6" orient="auto" overflow="visible" refX="0" refY="0"><path id="path4479-3" fill-rule="evenodd" stroke-linejoin="round" stroke-width=".625" d="M 8.7185878,4.0337352 -2.2072895,0.01601326 8.7185884,-4.0017078 c -1.7454984,2.3720609 -1.7354408,5.6174519 -6e-7,8.035443 z" transform="matrix(-1.1,0,0,-1.1,-1.1,0)"/></marker><marker id="Arrow2Lstart-8" orient="auto" overflow="visible" refX="0" refY="0"><path id="path4476-3" fill-rule="evenodd" stroke-linejoin="round" stroke-width=".625" d="M 8.7185878,4.0337352 -2.2072895,0.01601326 8.7185884,-4.0017078 c -1.7454984,2.3720609 -1.7354408,5.6174519 -6e-7,8.035443 z" transform="matrix(1.1,0,0,1.1,1.1,0)"/></marker><marker id="Arrow2Lend-7" orient="auto" overflow="visible" refX="0" refY="0"><path id="path4479-0" fill-rule="evenodd" stroke-linejoin="round" stroke-width=".625" d="M 8.7185878,4.0337352 -2.2072895,0.01601326 8.7185884,-4.0017078 c -1.7454984,2.3720609 -1.7354408,5.6174519 -6e-7,8.035443 z" transform="matrix(-1.1,0,0,-1.1,-1.1,0)"/></marker><marker id="Arrow2Lstart-6" orient="auto" overflow="visible" refX="0" refY="0"><path id="path4476-0" fill-rule="evenodd" stroke-linejoin="round" stroke-width=".625" d="M 8.7185878,4.0337352 -2.2072895,0.01601326 8.7185884,-4.0017078 c -1.7454984,2.3720609 -1.7354408,5.6174519 -6e-7,8.035443 z" transform="matrix(1.1,0,0,1.1,1.1,0)"/></marker><marker id="Arrow2Lend-5" orient="auto" overflow="visible" refX="0" refY="0"><path id="path4479-5" fill-rule="evenodd" stroke-linejoin="round" stroke-width=".625" d="M 8.7185878,4.0337352 -2.2072895,0.01601326 8.7185884,-4.0017078 c -1.7454984,2.3720609 -1.7354408,5.6174519 -6e-7,8.035443 z" transform="matrix(-1.1,0,0,-1.1,-1.1,0)"/></marker><marker id="Arrow2Lstart-62" orient="auto" overflow="visible" refX="0" refY="0"><path id="path4476-36" fill-rule="evenodd" stroke-linejoin="round" stroke-width=".625" d="M 8.7185878,4.0337352 -2.2072895,0.01601326 8.7185884,-4.0017078 c -1.7454984,2.3720609 -1.7354408,5.6174519 -6e-7,8.035443 z" transform="matrix(1.1,0,0,1.1,1.1,0)"/></marker><marker id="Arrow2Lend-8" orient="auto" overflow="visible" refX="0" refY="0"><path id="path4479-4" fill-rule="evenodd" stroke-linejoin="round" stroke-width=".625" d="M 8.7185878,4.0337352 -2.2072895,0.01601326 8.7185884,-4.0017078 c -1.7454984,2.3720609 -1.7354408,5.6174519 -6e-7,8.035443 z" transform="matrix(-1.1,0,0,-1.1,-1.1,0)"/></marker><marker id="Arrow2Lstart-624" orient="auto" overflow="visible" refX="0" refY="0"><path id="path4476-6" fill-rule="evenodd" stroke-linejoin="round" stroke-width=".625" d="M 8.7185878,4.0337352 -2.2072895,0.01601326 8.7185884,-4.0017078 c -1.7454984,2.3720609 -1.7354408,5.6174519 -6e-7,8.035443 z" transform="matrix(1.1,0,0,1.1,1.1,0)"/></marker><marker id="Arrow2Lend-81" orient="auto" overflow="visible" refX="0" refY="0"><path id="path4479-1" fill-rule="evenodd" stroke-linejoin="round" stroke-width=".625" d="M 8.7185878,4.0337352 -2.2072895,0.01601326 8.7185884,-4.0017078 c -1.7454984,2.3720609 -1.7354408,5.6174519 -6e-7,8.035443 z" transform="matrix(-1.1,0,0,-1.1,-1.1,0)"/></marker><marker id="Arrow2Lstart-68" orient="auto" overflow="visible" refX="0" refY="0"><path id="path4476-5" fill-rule="evenodd" stroke-linejoin="round" stroke-width=".625" d="M 8.7185878,4.0337352 -2.2072895,0.01601326 8.7185884,-4.0017078 c -1.7454984,2.3720609 -1.7354408,5.6174519 -6e-7,8.035443 z" transform="matrix(1.1,0,0,1.1,1.1,0)"/></marker><marker id="Arrow2Lend-9" orient="auto" overflow="visible" refX="0" refY="0"><path id="path4479-7" fill-rule="evenodd" stroke-linejoin="round" stroke-width=".625" d="M 8.7185878,4.0337352 -2.2072895,0.01601326 8.7185884,-4.0017078 c -1.7454984,2.3720609 -1.7354408,5.6174519 -6e-7,8.035443 z" transform="matrix(-1.1,0,0,-1.1,-1.1,0)"/></marker><marker id="Arrow2Lstart-625" orient="auto" overflow="visible" refX="0" refY="0"><path id="path4476-39" fill-rule="evenodd" stroke-linejoin="round" stroke-width=".625" d="M 8.7185878,4.0337352 -2.2072895,0.01601326 8.7185884,-4.0017078 c -1.7454984,2.3720609 -1.7354408,5.6174519 -6e-7,8.035443 z" transform="matrix(1.1,0,0,1.1,1.1,0)"/></marker><marker id="Arrow2Lend-1" orient="auto" overflow="visible" refX="0" refY="0"><path id="path4479-2" fill-rule="evenodd" stroke-linejoin="round" stroke-width=".625" d="M 8.7185878,4.0337352 -2.2072895,0.01601326 8.7185884,-4.0017078 c -1.7454984,2.3720609 -1.7354408,5.6174519 -6e-7,8.035443 z" transform="matrix(-1.1,0,0,-1.1,-1.1,0)"/></marker><marker id="Arrow2Lstart-5" orient="auto" overflow="visible" refX="0" refY="0"><path id="path4476-4" fill-rule="evenodd" stroke-linejoin="round" stroke-width=".625" d="M 8.7185878,4.0337352 -2.2072895,0.01601326 8.7185884,-4.0017078 c -1.7454984,2.3720609 -1.7354408,5.6174519 -6e-7,8.035443 z" transform="matrix(1.1,0,0,1.1,1.1,0)"/></marker><marker id="Arrow2Lend-4" orient="auto" overflow="visible" refX="0" refY="0"><path id="path4479-9" fill-rule="evenodd" stroke-linejoin="round" stroke-width=".625" d="M 8.7185878,4.0337352 -2.2072895,0.01601326 8.7185884,-4.0017078 c -1.7454984,2.3720609 -1.7354408,5.6174519 -6e-7,8.035443 z" transform="matrix(-1.1,0,0,-1.1,-1.1,0)"/></marker><marker id="Arrow2Lstart-73" orient="auto" overflow="visible" refX="0" refY="0"><path id="path4476-9" fill-rule="evenodd" stroke-linejoin="round" stroke-width=".625" d="M 8.7185878,4.0337352 -2.2072895,0.01601326 8.7185884,-4.0017078 c -1.7454984,2.3720609 -1.7354408,5.6174519 -6e-7,8.035443 z" transform="matrix(1.1,0,0,1.1,1.1,0)"/></marker><marker id="Arrow2Lend-3" orient="auto" overflow="visible" refX="0" refY="0"><path id="path4479-14" fill-rule="evenodd" stroke-linejoin="round" stroke-width=".625" d="M 8.7185878,4.0337352 -2.2072895,0.01601326 8.7185884,-4.0017078 c -1.7454984,2.3720609 -1.7354408,5.6174519 -6e-7,8.035443 z" transform="matrix(-1.1,0,0,-1.1,-1.1,0)"/></marker><marker id="Arrow2Lstart-50" orient="auto" overflow="visible" refX="0" refY="0"><path id="path4476-33" fill-rule="evenodd" stroke-linejoin="round" stroke-width=".625" d="M 8.7185878,4.0337352 -2.2072895,0.01601326 8.7185884,-4.0017078 c -1.7454984,2.3720609 -1.7354408,5.6174519 -6e-7,8.035443 z" transform="matrix(1.1,0,0,1.1,1.1,0)"/></marker><marker id="Arrow2Lend-30" orient="auto" overflow="visible" refX="0" refY="0"><path id="path4479-8" fill-rule="evenodd" stroke-linejoin="round" stroke-width=".625" d="M 8.7185878,4.0337352 -2.2072895,0.01601326 8.7185884,-4.0017078 c -1.7454984,2.3720609 -1.7354408,5.6174519 -6e-7,8.035443 z" transform="matrix(-1.1,0,0,-1.1,-1.1,0)"/></marker><marker id="Arrow2Lstart-9" orient="auto" overflow="visible" refX="0" refY="0"><path id="path4476-91" fill-rule="evenodd" stroke-linejoin="round" stroke-width=".625" d="M 8.7185878,4.0337352 -2.2072895,0.01601326 8.7185884,-4.0017078 c -1.7454984,2.3720609 -1.7354408,5.6174519 -6e-7,8.035443 z" transform="matrix(1.1,0,0,1.1,1.1,0)"/></marker><marker id="Arrow2Lend-93" orient="auto" overflow="visible" refX="0" refY="0"><path id="path4479-18" fill-rule="evenodd" stroke-linejoin="round" stroke-width=".625" d="M 8.7185878,4.0337352 -2.2072895,0.01601326 8.7185884,-4.0017078 c -1.7454984,2.3720609 -1.7354408,5.6174519 -6e-7,8.035443 z" transform="matrix(-1.1,0,0,-1.1,-1.1,0)"/></marker><marker id="Arrow2Mstart-4" orient="auto" overflow="visible" refX="0" refY="0"><path id="path4482-4" fill-rule="evenodd" stroke-linejoin="round" stroke-width=".625" d="M 8.7185878,4.0337352 -2.2072895,0.01601326 8.7185884,-4.0017078 c -1.7454984,2.3720609 -1.7354408,5.6174519 -6e-7,8.035443 z" transform="scale(0.6,0.6)"/></marker><marker id="Arrow2Mend-3" orient="auto" overflow="visible" refX="0" refY="0"><path id="path4485-7" fill-rule="evenodd" stroke-linejoin="round" stroke-width=".625" d="M 8.7185878,4.0337352 -2.2072895,0.01601326 8.7185884,-4.0017078 c -1.7454984,2.3720609 -1.7354408,5.6174519 -6e-7,8.035443 z" transform="scale(-0.6,-0.6)"/></marker><marker id="Arrow2Mend-31" orient="auto" overflow="visible" refX="0" refY="0"><path id="path4485-5" fill-rule="evenodd" stroke-linejoin="round" stroke-width=".625" d="M 8.7185878,4.0337352 -2.2072895,0.01601326 8.7185884,-4.0017078 c -1.7454984,2.3720609 -1.7354408,5.6174519 -6e-7,8.035443 z" transform="scale(-0.6,-0.6)"/></marker><linearGradient id="linearGradient4281" x1="383.596" x2="4438.941" y1="2591.689" y2="2591.689" gradientTransform="matrix(20.433058,0,0,2.4232104,-77708.778,-10993.829)" gradientUnits="userSpaceOnUse" xlink:href="#linearGradient4277"/></defs><metadata id="metadata3086"/><g id="layer1" transform="translate(-2.1154376,9352.6377)"><rect id="rect4367" width="13400" height="10400" x="5" y="-9352.638" fill="#00c100" fill-opacity="1" stroke="none"/><rect id="rect4371" width="12600" height="9600" x="405" y="-8952.638" fill="#00b000" fill-opacity="1" stroke="none"/><rect id="rect3089" width="12005.138" height="9005.139" x="712.431" y="-8665.663" fill="#0a0" fill-opacity="1" stroke="#fff" stroke-dasharray="29.724 14.862" stroke-dashoffset="0" stroke-linecap="square" stroke-linejoin="miter" stroke-miterlimit="0" stroke-opacity="1" stroke-width="14.862" ry="21.746"/><rect id="rect4369" width="10" height="9000" x="6695" y="-8647.638" fill="#fff" fill-opacity="1" stroke="none"/><ellipse id="path4392" cx="6696" cy="-4147.638" fill="none" stroke="#fff" stroke-dasharray="none" stroke-miterlimit="4" stroke-opacity="1" stroke-width="9.946" rx="495.027" ry="495.027"/><rect id="rect4418" width="12020" height="10" x="705" y="-4152.638" fill="#fff" fill-opacity="1" stroke="none"/><path id="path4452" fill="none" stroke="#000" stroke-dasharray="none" stroke-linecap="butt" stroke-linejoin="miter" stroke-miterlimit="4" stroke-opacity="1" stroke-width="20" marker-end="url(#Arrow2Lend)" marker-start="url(#Arrow2Lstart)" d="m 3100.8436,-8646.2109 0,8965.47069"/><path id="path4452-5" fill="none" stroke="#000" stroke-dasharray="none" stroke-linecap="butt" stroke-linejoin="miter" stroke-miterlimit="4" stroke-opacity="1" stroke-width="20" marker-end="url(#Arrow2Lend)" marker-start="url(#Arrow2Lstart)" d="m 732.5803,-7970.9808 11964.6037,0"/><path id="path4452-5-3" fill="none" stroke="#000" stroke-dasharray="none" stroke-linecap="butt" stroke-linejoin="miter" stroke-miterlimit="4" stroke-opacity="1" stroke-width="12.501" marker-end="url(#Arrow2Lend)" marker-start="url(#Arrow2Lstart)" d="m 6328.5276,-4464.3159 737.464,629.4997"/><path id="path4452-4" fill="none" stroke="#000" stroke-dasharray="none" stroke-linecap="butt" stroke-linejoin="miter" stroke-miterlimit="4" stroke-opacity="1" stroke-width="17.589" marker-end="url(#Arrow2Lend)" marker-start="url(#Arrow2Lstart)" d="m 97.711065,1026.1468 0,-10347.5689"/><path id="path4452-5-5" fill="none" stroke="#000" stroke-dasharray="none" stroke-linecap="butt" stroke-linejoin="miter" stroke-miterlimit="4" stroke-opacity="1" stroke-width="17.689" marker-end="url(#Arrow2Lend)" marker-start="url(#Arrow2Lstart)" d="m 25.606689,-9029.3364 13347.394311,0"/><path id="path4452-5-7" fill="none" stroke="#000" stroke-dasharray="none" stroke-linecap="butt" stroke-linejoin="miter" stroke-miterlimit="4" stroke-opacity="1" stroke-width="9.904" marker-end="url(#Arrow2Lend)" marker-start="url(#Arrow2Lstart)" d="m 12737.348,7.9911128 653.753,0"/><path id="path4452-5-7-6" fill="none" stroke="#000" stroke-dasharray="none" stroke-linecap="butt" stroke-linejoin="miter" stroke-miterlimit="4" stroke-opacity="1" stroke-width="10.199" marker-end="url(#Arrow2Mend)" marker-start="url(#Arrow2Mstart)" d="m 12741.629,-355.25278 244.978,0"/><g id="g4272" transform="matrix(1,0,0,1.1923077,15,-1005.8389)"><rect id="rect7139" width="200" height="20" x="490" y="-3167.638" fill="#806600" fill-opacity="1" stroke="none"/><rect id="rect7139-2" width="200" height="20" x="490" y="-2147.638" fill="#806600" fill-opacity="1" stroke="none"/><rect id="rect7139-2-6" width="20" height="1000" x="490" y="-3147.638" fill="#806600" fill-opacity="1" stroke="none"/></g><g id="g4280" transform="matrix(1,0,0,1.1923077,3025,-1005.839)"><rect id="rect7139-27" width="200" height="20" x="-9900" y="-3167.638" fill="#806600" fill-opacity="1" stroke="none" transform="scale(-1,1)"/><rect id="rect7139-2-64" width="200" height="20" x="-9900" y="-2147.638" fill="#806600" fill-opacity="1" stroke="none" transform="scale(-1,1)"/><rect id="rect7139-2-6-5" width="20" height="1000" x="-9900" y="-3147.638" fill="#806600" fill-opacity="1" stroke="none" transform="scale(-1,1)"/></g><path id="path4452-2-9" fill="none" stroke="#000" stroke-dasharray="none" stroke-linecap="butt" stroke-linejoin="miter" stroke-miterlimit="4" stroke-opacity="1" stroke-width="10.924" marker-end="url(#Arrow2Mend)" marker-start="url(#Arrow2Mstart)" d="m 554.42074,-4746.1285 0,1166.0605"/><path id="path4452-2-5" fill="none" stroke="#000" stroke-dasharray="none" stroke-linecap="butt" stroke-linejoin="miter" stroke-miterlimit="4" stroke-opacity="1" stroke-width="10" marker-end="url(#Arrow2Mend)" marker-start="none" d="m 4209.0809,163.863 0,155.31324"/><path id="path4452-2-5-2" fill="none" stroke="#000" stroke-dasharray="none" stroke-linecap="butt" stroke-linejoin="miter" stroke-miterlimit="4" stroke-opacity="1" stroke-width="10" marker-end="url(#Arrow2Mend)" marker-start="none" d="m 4209.2789,515.6097 0,-155.3132"/><text id="text8102" x="3714.398" y="-9102.348" fill="#000" fill-opacity="1" stroke="none" font-family="Times New Roman" font-size="200" font-style="normal" font-weight="normal" letter-spacing="0" word-spacing="0" xml:space="preserve" style="line-height:125%;-inkscape-font-specification:Times New Roman"><tspan id="tspan8106" x="3714.398" y="-9102.348" font-family="Verdana" font-size="250" font-stretch="normal" font-style="normal" font-variant="normal" font-weight="normal" style="-inkscape-font-specification:Verdana">13400</tspan></text><text id="text8110" x="4205.906" y="329.004" fill="#000" fill-opacity="1" stroke="none" font-family="Times New Roman" font-size="200" font-style="normal" font-weight="normal" letter-spacing="0" transform="matrix(0,-1,1,0,0,0)" word-spacing="0" xml:space="preserve" style="line-height:125%;-inkscape-font-specification:Times New Roman"><tspan style="-inkscape-font-specification:Verdana" id="tspan8112" x="4205.906" y="329.004" font-family="Verdana" font-size="250" font-stretch="normal" font-style="normal" font-variant="normal" font-weight="normal">10400</tspan></text><text id="text8114" x="4385.156" y="-7751.869" fill="#000" fill-opacity="1" stroke="none" font-family="Verdana" font-size="200" font-stretch="normal" font-style="normal" font-variant="normal" font-weight="normal" letter-spacing="0" word-spacing="0" xml:space="preserve" style="line-height:125%;-inkscape-font-specification:Verdana"><tspan id="tspan8118" x="4385.156" y="-7751.869" font-size="250">12000</tspan></text><text id="text8122" x="3178" y="-3764.304" fill="#000" fill-opacity="1" stroke="none" font-family="Verdana" font-size="200" font-stretch="normal" font-style="normal" font-variant="normal" font-weight="normal" letter-spacing="0" word-spacing="0" xml:space="preserve" style="line-height:125%;-inkscape-font-specification:Verdana"><tspan id="tspan8124" x="3178" y="-3764.304" font-size="250">9000</tspan></text><text id="text8126" x="1249.45" y="-3243.112" fill="#000" fill-opacity="1" stroke="none" font-family="Verdana" font-size="200" font-stretch="normal" font-style="normal" font-variant="normal" font-weight="normal" letter-spacing="0" word-spacing="0" xml:space="preserve" style="line-height:125%;-inkscape-font-specification:Verdana"><tspan id="tspan8128" x="1249.45" y="-3243.112" font-size="200">2400</tspan></text><text id="text8130" x="1107.473" y="-5173.084" fill="#000" fill-opacity="1" stroke="none" font-family="Verdana" font-size="200" font-stretch="normal" font-style="normal" font-variant="normal" font-weight="normal" letter-spacing="0" word-spacing="0" xml:space="preserve" style="line-height:125%;-inkscape-font-specification:Verdana"><tspan id="tspan8132" x="1107.473" y="-5173.084" font-size="200">1200</tspan></text><text id="text8146" x="4243" y="540.029" fill="#000" fill-opacity="1" stroke="none" font-family="Verdana" font-size="125" font-stretch="normal" font-style="normal" font-variant="normal" font-weight="normal" letter-spacing="0" word-spacing="0" xml:space="preserve" style="line-height:125%;-inkscape-font-specification:Verdana"><tspan id="tspan8148" x="4243" y="540.029" font-size="250">10</tspan></text><text id="text8150" x="12578.68" y="-413.17" fill="#000" fill-opacity="1" stroke="none" font-family="Verdana" font-size="125" font-stretch="normal" font-style="normal" font-variant="normal" font-weight="normal" letter-spacing="0" word-spacing="0" xml:space="preserve" style="line-height:125%;-inkscape-font-specification:Verdana"><tspan id="tspan8152" x="12578.68" y="-413.17" font-size="200">300</tspan></text><text id="text8154" x="13006.568" y="-33.098" fill="#000" fill-opacity="1" stroke="none" font-family="Verdana" font-size="125" font-stretch="normal" font-style="normal" font-variant="normal" font-weight="normal" letter-spacing="0" word-spacing="0" xml:space="preserve" style="line-height:125%;-inkscape-font-specification:Verdana"><tspan id="tspan8156" x="13006.568" y="-33.098" font-size="200">700</tspan></text><text font-style="normal" style="line-height:345.00000477%;-inkscape-font-specification:'Verdana, Normal';text-align:start" id="text8158" x="6598.646" y="-4249.082" fill="#000" fill-opacity="1" stroke="none" font-family="Verdana" font-size="200" font-stretch="normal" font-variant="normal" font-weight="normal" letter-spacing="0" text-anchor="start" word-spacing="0" writing-mode="lr-tb" xml:space="preserve"><tspan id="tspan3646" x="6598.646" y="-4249.082">1000</tspan></text><rect id="rect3089-3" width="1225.319" height="2425.32" x="713.34" y="-5374.695" fill="none" stroke="#fff" stroke-dasharray="none" stroke-dashoffset="0" stroke-linecap="square" stroke-linejoin="miter" stroke-miterlimit="0" stroke-opacity="1" stroke-width="15.181" ry="5.857"/><rect id="rect3089-3-6" width="1225.319" height="2425.32" x="11492.591" y="-5375.548" fill="none" stroke="#fff" stroke-dasharray="none" stroke-dashoffset="0" stroke-linecap="square" stroke-linejoin="miter" stroke-miterlimit="0" stroke-opacity="1" stroke-width="15.181" ry="5.857"/><rect id="rect3303" width="12560.075" height="9560.075" x="422.078" y="-8930.531" fill="none" fill-opacity="1" fill-rule="evenodd" stroke="url(#linearGradient4281)" stroke-dasharray="none" stroke-linecap="butt" stroke-linejoin="miter" stroke-miterlimit="4" stroke-opacity="1" stroke-width="39.925"/><path id="path4452-5-3-6-0" fill="none" stroke="#000" stroke-dasharray="none" stroke-linecap="butt" stroke-linejoin="miter" stroke-miterlimit="4" stroke-opacity="1" stroke-width="10" marker-end="url(#Arrow2Mend)" marker-start="url(#Arrow2Mstart)" d="m 717.47085,-5101.3829 1215.21055,0"/><path id="path4452-2" fill="none" stroke="#000" stroke-dasharray="none" stroke-linecap="butt" stroke-linejoin="miter" stroke-miterlimit="4" stroke-opacity="1" stroke-width="10" marker-end="url(#Arrow2Mend)" marker-start="url(#Arrow2Mstart)" d="m 1813.878,-5369.5172 0,2415.2926"/><text id="text8142" x="548.274" y="-4350.463" fill="#000" fill-opacity="1" stroke="none" font-family="Verdana" font-size="200" font-stretch="normal" font-style="normal" font-variant="normal" font-weight="normal" letter-spacing="0" word-spacing="0" xml:space="preserve" style="line-height:125%;-inkscape-font-specification:Verdana"><tspan id="tspan8144" x="548.274" y="-4350.463" font-size="200">1200</tspan></text></g></svg>