<svg xmlns="http://www.w3.org/2000/svg" xmlns:svg="http://www.w3.org/2000/svg" id="svg2" width="800" height="800" version="1.0"><metadata id="metadata7"/><g id="layer1" display="inline" transform="translate(0,200)"><rect id="use2405" width="800" height="800" x="0" y="-200" fill="green" fill-opacity="1" stroke="none" stroke-dasharray="none" stroke-miterlimit="4" stroke-opacity="1" stroke-width="1.155" display="inline"/><g id="g3320" transform="translate(0,-200)"><rect id="rect3195" width="199" height="199" x=".5" y="400.5" fill="none" fill-opacity="1" stroke="#000" stroke-dasharray="none" stroke-miterlimit="4" stroke-opacity="1" stroke-width="1"/><rect id="rect3197" width="199" height="199" x="200.5" y="400.5" fill="none" fill-opacity="1" stroke="#000" stroke-dasharray="none" stroke-miterlimit="4" stroke-opacity="1" stroke-width="1"/><rect id="rect3199" width="199" height="199" x="400.5" y="400.5" fill="none" fill-opacity="1" stroke="#000" stroke-dasharray="none" stroke-miterlimit="4" stroke-opacity="1" stroke-width="1"/><rect id="rect3201" width="199" height="199" x="600.5" y="400.5" fill="none" fill-opacity="1" stroke="#000" stroke-dasharray="none" stroke-miterlimit="4" stroke-opacity="1" stroke-width="1"/><rect id="rect3203" width="199" height="199" x=".5" y="200.5" fill="none" fill-opacity="1" stroke="#000" stroke-dasharray="none" stroke-miterlimit="4" stroke-opacity="1" stroke-width="1"/><rect id="rect3205" width="199" height="199" x="200.5" y="200.5" fill="none" fill-opacity="1" stroke="#000" stroke-dasharray="none" stroke-miterlimit="4" stroke-opacity="1" stroke-width="1"/><rect id="rect3207" width="199" height="199" x="400.5" y="200.5" fill="none" fill-opacity="1" stroke="#000" stroke-dasharray="none" stroke-miterlimit="4" stroke-opacity="1" stroke-width="1"/><rect id="rect3209" width="199" height="199" x="600.5" y="200.5" fill="none" fill-opacity="1" stroke="#000" stroke-dasharray="none" stroke-miterlimit="4" stroke-opacity="1" stroke-width="1"/><rect id="rect3211" width="199" height="199" x=".5" y=".5" fill="none" fill-opacity="1" stroke="#000" stroke-dasharray="none" stroke-miterlimit="4" stroke-opacity="1" stroke-width="1"/><rect id="rect3213" width="199" height="199" x="200.5" y=".5" fill="none" fill-opacity="1" stroke="#000" stroke-dasharray="none" stroke-miterlimit="4" stroke-opacity="1" stroke-width="1"/><rect id="rect3215" width="199" height="199" x="400.5" y=".5" fill="none" fill-opacity="1" stroke="#000" stroke-dasharray="none" stroke-miterlimit="4" stroke-opacity="1" stroke-width="1"/><rect id="rect3217" width="199" height="199" x="600.5" y=".5" fill="none" fill-opacity="1" stroke="#000" stroke-dasharray="none" stroke-miterlimit="4" stroke-opacity="1" stroke-width="1"/><rect id="rect3817" width="199" height="199" x=".5" y="600.5" fill="none" fill-opacity="1" stroke="#000" stroke-dasharray="none" stroke-miterlimit="4" stroke-opacity="1" stroke-width="1"/><rect id="rect3819" width="199" height="199" x="200.5" y="600.5" fill="none" fill-opacity="1" stroke="#000" stroke-dasharray="none" stroke-miterlimit="4" stroke-opacity="1" stroke-width="1"/><rect id="rect3821" width="199" height="199" x="400.5" y="600.5" fill="none" fill-opacity="1" stroke="#000" stroke-dasharray="none" stroke-miterlimit="4" stroke-opacity="1" stroke-width="1"/><rect id="rect3823" width="199" height="199" x="600.5" y="600.5" fill="none" fill-opacity="1" stroke="#000" stroke-dasharray="none" stroke-miterlimit="4" stroke-opacity="1" stroke-width="1"/></g><g id="g3379" transform="translate(214.3439,-39.24206)"><path id="path2591" fill="#000" fill-opacity="1" stroke="none" stroke-dasharray="none" stroke-dashoffset="0" stroke-miterlimit="4" stroke-opacity="1" stroke-width=".564" d="m -178.23725,-126.35227 c -12.79805,14.84106 -20.5401,34.159385 -20.5401,55.279253 0,46.763345 37.95467,84.718044 84.71801,84.718015 46.763351,0 84.718024,-37.95467 84.718018,-84.718015 0,-21.119868 -7.750872,-40.438193 -20.548925,-55.279253 z"/><ellipse id="path2593" cx="239.775" cy="374.094" fill="#00f" fill-opacity="1" stroke="none" stroke-dasharray="none" stroke-dashoffset="0" stroke-miterlimit="4" stroke-opacity="1" stroke-width="2.665" rx="129.741" ry="105.107" transform="matrix(0.1905141,0,0,0.2351658,-159.73986,-159.04906)"/><ellipse id="path2595" cx="239.775" cy="374.094" fill="#f0f" fill-opacity="1" stroke="none" stroke-dasharray="none" stroke-dashoffset="0" stroke-miterlimit="4" stroke-opacity="1" stroke-width="3.34" rx="129.741" ry="105.107" transform="matrix(0.1519766,0,0,0.1875961,-205.27031,-176.50283)"/><ellipse id="path2597" cx="239.775" cy="374.094" fill="#0f0" fill-opacity="1" stroke="none" stroke-dasharray="none" stroke-dashoffset="0" stroke-miterlimit="4" stroke-opacity="1" stroke-width="3.34" rx="129.741" ry="105.107" transform="matrix(0.1519766,0,0,0.1875961,-185.50068,-86.483491)"/><ellipse id="path2599" cx="239.775" cy="374.094" fill="#f0f" fill-opacity="1" stroke="none" stroke-dasharray="none" stroke-dashoffset="0" stroke-miterlimit="4" stroke-opacity="1" stroke-width="3.34" rx="129.741" ry="105.107" transform="matrix(0.1519766,0,0,0.1875961,-115.50197,-86.483491)"/><ellipse id="path2601" cx="239.775" cy="374.094" fill="#f0f" fill-opacity="1" stroke="none" stroke-dasharray="none" stroke-dashoffset="0" stroke-miterlimit="4" stroke-opacity="1" stroke-width="3.34" rx="129.741" ry="105.107" transform="matrix(0.1519766,0,0,0.1875961,-95.73234,-176.50283)"/></g><g id="g3387" transform="translate(414.3982,-39.24206)"><path id="path3389" fill="#000" fill-opacity="1" stroke="none" stroke-dasharray="none" stroke-dashoffset="0" stroke-miterlimit="4" stroke-opacity="1" stroke-width=".564" d="m -178.23725,-126.35227 c -12.79805,14.84106 -20.5401,34.159385 -20.5401,55.279253 0,46.763345 37.95467,84.718044 84.71801,84.718015 46.763351,0 84.718024,-37.95467 84.718018,-84.718015 0,-21.119868 -7.750872,-40.438193 -20.548925,-55.279253 z"/><ellipse id="path3391" cx="239.775" cy="374.094" fill="#00f" fill-opacity="1" stroke="none" stroke-dasharray="none" stroke-dashoffset="0" stroke-miterlimit="4" stroke-opacity="1" stroke-width="2.665" rx="129.741" ry="105.107" transform="matrix(0.1905141,0,0,0.2351658,-159.73986,-159.04906)"/><ellipse id="path3393" cx="239.775" cy="374.094" fill="#0f0" fill-opacity="1" stroke="none" stroke-dasharray="none" stroke-dashoffset="0" stroke-miterlimit="4" stroke-opacity="1" stroke-width="3.34" rx="129.741" ry="105.107" transform="matrix(0.1519766,0,0,0.1875961,-205.27031,-176.50283)"/><ellipse id="path3395" cx="239.775" cy="374.094" fill="#0f0" fill-opacity="1" stroke="none" stroke-dasharray="none" stroke-dashoffset="0" stroke-miterlimit="4" stroke-opacity="1" stroke-width="3.34" rx="129.741" ry="105.107" transform="matrix(0.1519766,0,0,0.1875961,-185.50068,-86.483491)"/><ellipse id="path3397" cx="239.775" cy="374.094" fill="#f0f" fill-opacity="1" stroke="none" stroke-dasharray="none" stroke-dashoffset="0" stroke-miterlimit="4" stroke-opacity="1" stroke-width="3.34" rx="129.741" ry="105.107" transform="matrix(0.1519766,0,0,0.1875961,-115.50197,-86.483491)"/><ellipse id="path3399" cx="239.775" cy="374.094" fill="#f0f" fill-opacity="1" stroke="none" stroke-dasharray="none" stroke-dashoffset="0" stroke-miterlimit="4" stroke-opacity="1" stroke-width="3.34" rx="129.741" ry="105.107" transform="matrix(0.1519766,0,0,0.1875961,-95.73234,-176.50283)"/></g><g id="g3401" transform="translate(614.45252,-39.24206)"><path id="path3403" fill="#000" fill-opacity="1" stroke="none" stroke-dasharray="none" stroke-dashoffset="0" stroke-miterlimit="4" stroke-opacity="1" stroke-width=".564" d="m -178.23725,-126.35227 c -12.79805,14.84106 -20.5401,34.159385 -20.5401,55.279253 0,46.763345 37.95467,84.718044 84.71801,84.718015 46.763351,0 84.718024,-37.95467 84.718018,-84.718015 0,-21.119868 -7.750872,-40.438193 -20.548925,-55.279253 z"/><ellipse id="path3405" cx="239.775" cy="374.094" fill="#00f" fill-opacity="1" stroke="none" stroke-dasharray="none" stroke-dashoffset="0" stroke-miterlimit="4" stroke-opacity="1" stroke-width="2.665" rx="129.741" ry="105.107" transform="matrix(0.1905141,0,0,0.2351658,-159.73986,-159.04906)"/><ellipse id="path3407" cx="239.775" cy="374.094" fill="#0f0" fill-opacity="1" stroke="none" stroke-dasharray="none" stroke-dashoffset="0" stroke-miterlimit="4" stroke-opacity="1" stroke-width="3.34" rx="129.741" ry="105.107" transform="matrix(0.1519766,0,0,0.1875961,-205.27031,-176.50283)"/><ellipse id="path3409" cx="239.775" cy="374.094" fill="#0f0" fill-opacity="1" stroke="none" stroke-dasharray="none" stroke-dashoffset="0" stroke-miterlimit="4" stroke-opacity="1" stroke-width="3.34" rx="129.741" ry="105.107" transform="matrix(0.1519766,0,0,0.1875961,-185.50068,-86.483491)"/><ellipse id="path3411" cx="239.775" cy="374.094" fill="#f0f" fill-opacity="1" stroke="none" stroke-dasharray="none" stroke-dashoffset="0" stroke-miterlimit="4" stroke-opacity="1" stroke-width="3.34" rx="129.741" ry="105.107" transform="matrix(0.1519766,0,0,0.1875961,-115.50197,-86.483491)"/><ellipse id="path3413" cx="239.775" cy="374.094" fill="#0f0" fill-opacity="1" stroke="none" stroke-dasharray="none" stroke-dashoffset="0" stroke-miterlimit="4" stroke-opacity="1" stroke-width="3.34" rx="129.741" ry="105.107" transform="matrix(0.1519766,0,0,0.1875961,-95.73234,-176.50283)"/></g><g id="g3415" transform="translate(814.50684,-39.24206)"><path id="path3417" fill="#000" fill-opacity="1" stroke="none" stroke-dasharray="none" stroke-dashoffset="0" stroke-miterlimit="4" stroke-opacity="1" stroke-width=".564" d="m -178.23725,-126.35227 c -12.79805,14.84106 -20.5401,34.159385 -20.5401,55.279253 0,46.763345 37.95467,84.718044 84.71801,84.718015 46.763351,0 84.718024,-37.95467 84.718018,-84.718015 0,-21.119868 -7.750872,-40.438193 -20.548925,-55.279253 z"/><ellipse id="path3419" cx="239.775" cy="374.094" fill="#00f" fill-opacity="1" stroke="none" stroke-dasharray="none" stroke-dashoffset="0" stroke-miterlimit="4" stroke-opacity="1" stroke-width="2.665" rx="129.741" ry="105.107" transform="matrix(0.1905141,0,0,0.2351658,-159.73986,-159.04906)"/><ellipse id="path3421" cx="239.775" cy="374.094" fill="#f0f" fill-opacity="1" stroke="none" stroke-dasharray="none" stroke-dashoffset="0" stroke-miterlimit="4" stroke-opacity="1" stroke-width="3.34" rx="129.741" ry="105.107" transform="matrix(0.1519766,0,0,0.1875961,-205.27031,-176.50283)"/><ellipse id="path3423" cx="239.775" cy="374.094" fill="#0f0" fill-opacity="1" stroke="none" stroke-dasharray="none" stroke-dashoffset="0" stroke-miterlimit="4" stroke-opacity="1" stroke-width="3.34" rx="129.741" ry="105.107" transform="matrix(0.1519766,0,0,0.1875961,-185.50068,-86.483491)"/><ellipse id="path3425" cx="239.775" cy="374.094" fill="#f0f" fill-opacity="1" stroke="none" stroke-dasharray="none" stroke-dashoffset="0" stroke-miterlimit="4" stroke-opacity="1" stroke-width="3.34" rx="129.741" ry="105.107" transform="matrix(0.1519766,0,0,0.1875961,-115.50197,-86.483491)"/><ellipse id="path3427" cx="239.775" cy="374.094" fill="#0f0" fill-opacity="1" stroke="none" stroke-dasharray="none" stroke-dashoffset="0" stroke-miterlimit="4" stroke-opacity="1" stroke-width="3.34" rx="129.741" ry="105.107" transform="matrix(0.1519766,0,0,0.1875961,-95.73234,-176.50283)"/></g><g id="g3461" transform="translate(214.3439,160.81225)"><path id="path3463" fill="#000" fill-opacity="1" stroke="none" stroke-dasharray="none" stroke-dashoffset="0" stroke-miterlimit="4" stroke-opacity="1" stroke-width=".564" d="m -178.23725,-126.35227 c -12.79805,14.84106 -20.5401,34.159385 -20.5401,55.279253 0,46.763345 37.95467,84.718044 84.71801,84.718015 46.763351,0 84.718024,-37.95467 84.718018,-84.718015 0,-21.119868 -7.750872,-40.438193 -20.548925,-55.279253 z"/><ellipse id="path3465" cx="239.775" cy="374.094" fill="#00f" fill-opacity="1" stroke="none" stroke-dasharray="none" stroke-dashoffset="0" stroke-miterlimit="4" stroke-opacity="1" stroke-width="2.665" rx="129.741" ry="105.107" transform="matrix(0.1905141,0,0,0.2351658,-159.73986,-159.04906)"/><ellipse id="path3467" cx="239.775" cy="374.094" fill="#f0f" fill-opacity="1" stroke="none" stroke-dasharray="none" stroke-dashoffset="0" stroke-miterlimit="4" stroke-opacity="1" stroke-width="3.34" rx="129.741" ry="105.107" transform="matrix(0.1519766,0,0,0.1875961,-205.27031,-176.50283)"/><ellipse id="path3469" cx="239.775" cy="374.094" fill="#f0f" fill-opacity="1" stroke="none" stroke-dasharray="none" stroke-dashoffset="0" stroke-miterlimit="4" stroke-opacity="1" stroke-width="3.34" rx="129.741" ry="105.107" transform="matrix(0.1519766,0,0,0.1875961,-185.50068,-86.483491)"/><ellipse id="path3471" cx="239.775" cy="374.094" fill="#0f0" fill-opacity="1" stroke="none" stroke-dasharray="none" stroke-dashoffset="0" stroke-miterlimit="4" stroke-opacity="1" stroke-width="3.34" rx="129.741" ry="105.107" transform="matrix(0.1519766,0,0,0.1875961,-115.50197,-86.483491)"/><ellipse id="path3473" cx="239.775" cy="374.094" fill="#f0f" fill-opacity="1" stroke="none" stroke-dasharray="none" stroke-dashoffset="0" stroke-miterlimit="4" stroke-opacity="1" stroke-width="3.34" rx="129.741" ry="105.107" transform="matrix(0.1519766,0,0,0.1875961,-95.73234,-176.50283)"/></g><g id="g3475" transform="translate(414.3982,160.81225)"><path id="path3477" fill="#000" fill-opacity="1" stroke="none" stroke-dasharray="none" stroke-dashoffset="0" stroke-miterlimit="4" stroke-opacity="1" stroke-width=".564" d="m -178.23725,-126.35227 c -12.79805,14.84106 -20.5401,34.159385 -20.5401,55.279253 0,46.763345 37.95467,84.718044 84.71801,84.718015 46.763351,0 84.718024,-37.95467 84.718018,-84.718015 0,-21.119868 -7.750872,-40.438193 -20.548925,-55.279253 z"/><ellipse id="path3479" cx="239.775" cy="374.094" fill="#00f" fill-opacity="1" stroke="none" stroke-dasharray="none" stroke-dashoffset="0" stroke-miterlimit="4" stroke-opacity="1" stroke-width="2.665" rx="129.741" ry="105.107" transform="matrix(0.1905141,0,0,0.2351658,-159.73986,-159.04906)"/><ellipse id="path3481" cx="239.775" cy="374.094" fill="#0f0" fill-opacity="1" stroke="none" stroke-dasharray="none" stroke-dashoffset="0" stroke-miterlimit="4" stroke-opacity="1" stroke-width="3.34" rx="129.741" ry="105.107" transform="matrix(0.1519766,0,0,0.1875961,-205.27031,-176.50283)"/><ellipse id="path3483" cx="239.775" cy="374.094" fill="#f0f" fill-opacity="1" stroke="none" stroke-dasharray="none" stroke-dashoffset="0" stroke-miterlimit="4" stroke-opacity="1" stroke-width="3.34" rx="129.741" ry="105.107" transform="matrix(0.1519766,0,0,0.1875961,-185.50068,-86.483491)"/><ellipse id="path3485" cx="239.775" cy="374.094" fill="#0f0" fill-opacity="1" stroke="none" stroke-dasharray="none" stroke-dashoffset="0" stroke-miterlimit="4" stroke-opacity="1" stroke-width="3.34" rx="129.741" ry="105.107" transform="matrix(0.1519766,0,0,0.1875961,-115.50197,-86.483491)"/><ellipse id="path3487" cx="239.775" cy="374.094" fill="#f0f" fill-opacity="1" stroke="none" stroke-dasharray="none" stroke-dashoffset="0" stroke-miterlimit="4" stroke-opacity="1" stroke-width="3.34" rx="129.741" ry="105.107" transform="matrix(0.1519766,0,0,0.1875961,-95.73234,-176.50283)"/></g><g id="g3489" transform="translate(614.45252,160.81225)"><path id="path3491" fill="#000" fill-opacity="1" stroke="none" stroke-dasharray="none" stroke-dashoffset="0" stroke-miterlimit="4" stroke-opacity="1" stroke-width=".564" d="m -178.23725,-126.35227 c -12.79805,14.84106 -20.5401,34.159385 -20.5401,55.279253 0,46.763345 37.95467,84.718044 84.71801,84.718015 46.763351,0 84.718024,-37.95467 84.718018,-84.718015 0,-21.119868 -7.750872,-40.438193 -20.548925,-55.279253 z"/><ellipse id="path3493" cx="239.775" cy="374.094" fill="#00f" fill-opacity="1" stroke="none" stroke-dasharray="none" stroke-dashoffset="0" stroke-miterlimit="4" stroke-opacity="1" stroke-width="2.665" rx="129.741" ry="105.107" transform="matrix(0.1905141,0,0,0.2351658,-159.73986,-159.04906)"/><ellipse id="path3495" cx="239.775" cy="374.094" fill="#0f0" fill-opacity="1" stroke="none" stroke-dasharray="none" stroke-dashoffset="0" stroke-miterlimit="4" stroke-opacity="1" stroke-width="3.34" rx="129.741" ry="105.107" transform="matrix(0.1519766,0,0,0.1875961,-205.27031,-176.50283)"/><ellipse id="path3497" cx="239.775" cy="374.094" fill="#f0f" fill-opacity="1" stroke="none" stroke-dasharray="none" stroke-dashoffset="0" stroke-miterlimit="4" stroke-opacity="1" stroke-width="3.34" rx="129.741" ry="105.107" transform="matrix(0.1519766,0,0,0.1875961,-185.50068,-86.483491)"/><ellipse id="path3499" cx="239.775" cy="374.094" fill="#0f0" fill-opacity="1" stroke="none" stroke-dasharray="none" stroke-dashoffset="0" stroke-miterlimit="4" stroke-opacity="1" stroke-width="3.34" rx="129.741" ry="105.107" transform="matrix(0.1519766,0,0,0.1875961,-115.50197,-86.483491)"/><ellipse id="path3501" cx="239.775" cy="374.094" fill="#0f0" fill-opacity="1" stroke="none" stroke-dasharray="none" stroke-dashoffset="0" stroke-miterlimit="4" stroke-opacity="1" stroke-width="3.34" rx="129.741" ry="105.107" transform="matrix(0.1519766,0,0,0.1875961,-95.73234,-176.50283)"/></g><g id="g3503" transform="translate(814.50684,160.81225)"><path id="path3505" fill="#000" fill-opacity="1" stroke="none" stroke-dasharray="none" stroke-dashoffset="0" stroke-miterlimit="4" stroke-opacity="1" stroke-width=".564" d="m -178.23725,-126.35227 c -12.79805,14.84106 -20.5401,34.159385 -20.5401,55.279253 0,46.763345 37.95467,84.718044 84.71801,84.718015 46.763351,0 84.718024,-37.95467 84.718018,-84.718015 0,-21.119868 -7.750872,-40.438193 -20.548925,-55.279253 z"/><ellipse id="path3507" cx="239.775" cy="374.094" fill="#00f" fill-opacity="1" stroke="none" stroke-dasharray="none" stroke-dashoffset="0" stroke-miterlimit="4" stroke-opacity="1" stroke-width="2.665" rx="129.741" ry="105.107" transform="matrix(0.1905141,0,0,0.2351658,-159.73986,-159.04906)"/><ellipse id="path3509" cx="239.775" cy="374.094" fill="#f0f" fill-opacity="1" stroke="none" stroke-dasharray="none" stroke-dashoffset="0" stroke-miterlimit="4" stroke-opacity="1" stroke-width="3.34" rx="129.741" ry="105.107" transform="matrix(0.1519766,0,0,0.1875961,-205.27031,-176.50283)"/><ellipse id="path3511" cx="239.775" cy="374.094" fill="#f0f" fill-opacity="1" stroke="none" stroke-dasharray="none" stroke-dashoffset="0" stroke-miterlimit="4" stroke-opacity="1" stroke-width="3.34" rx="129.741" ry="105.107" transform="matrix(0.1519766,0,0,0.1875961,-185.50068,-86.483491)"/><ellipse id="path3513" cx="239.775" cy="374.094" fill="#0f0" fill-opacity="1" stroke="none" stroke-dasharray="none" stroke-dashoffset="0" stroke-miterlimit="4" stroke-opacity="1" stroke-width="3.34" rx="129.741" ry="105.107" transform="matrix(0.1519766,0,0,0.1875961,-115.50197,-86.483491)"/><ellipse id="path3515" cx="239.775" cy="374.094" fill="#0f0" fill-opacity="1" stroke="none" stroke-dasharray="none" stroke-dashoffset="0" stroke-miterlimit="4" stroke-opacity="1" stroke-width="3.34" rx="129.741" ry="105.107" transform="matrix(0.1519766,0,0,0.1875961,-95.73234,-176.50283)"/></g><g id="g3519" transform="translate(214.3439,360.86653)"><path id="path3521" fill="#000" fill-opacity="1" stroke="none" stroke-dasharray="none" stroke-dashoffset="0" stroke-miterlimit="4" stroke-opacity="1" stroke-width=".564" d="m -178.23725,-126.35227 c -12.79805,14.84106 -20.5401,34.159385 -20.5401,55.279253 0,46.763345 37.95467,84.718044 84.71801,84.718015 46.763351,0 84.718024,-37.95467 84.718018,-84.718015 0,-21.119868 -7.750872,-40.438193 -20.548925,-55.279253 z"/><ellipse id="path3523" cx="239.775" cy="374.094" fill="#00f" fill-opacity="1" stroke="none" stroke-dasharray="none" stroke-dashoffset="0" stroke-miterlimit="4" stroke-opacity="1" stroke-width="2.665" rx="129.741" ry="105.107" transform="matrix(0.1905141,0,0,0.2351658,-159.73986,-159.04906)"/><ellipse id="path3525" cx="239.775" cy="374.094" fill="#0f0" fill-opacity="1" stroke="none" stroke-dasharray="none" stroke-dashoffset="0" stroke-miterlimit="4" stroke-opacity="1" stroke-width="3.34" rx="129.741" ry="105.107" transform="matrix(0.1519766,0,0,0.1875961,-205.27031,-176.50283)"/><ellipse id="path3527" cx="239.775" cy="374.094" fill="#0f0" fill-opacity="1" stroke="none" stroke-dasharray="none" stroke-dashoffset="0" stroke-miterlimit="4" stroke-opacity="1" stroke-width="3.34" rx="129.741" ry="105.107" transform="matrix(0.1519766,0,0,0.1875961,-185.50068,-86.483491)"/><ellipse id="path3529" cx="239.775" cy="374.094" fill="#0f0" fill-opacity="1" stroke="none" stroke-dasharray="none" stroke-dashoffset="0" stroke-miterlimit="4" stroke-opacity="1" stroke-width="3.34" rx="129.741" ry="105.107" transform="matrix(0.1519766,0,0,0.1875961,-115.50197,-86.483491)"/><ellipse id="path3531" cx="239.775" cy="374.094" fill="#0f0" fill-opacity="1" stroke="none" stroke-dasharray="none" stroke-dashoffset="0" stroke-miterlimit="4" stroke-opacity="1" stroke-width="3.34" rx="129.741" ry="105.107" transform="matrix(0.1519766,0,0,0.1875961,-95.73234,-176.50283)"/></g><g id="g3533" transform="translate(414.3982,360.86653)"><path id="path3535" fill="#000" fill-opacity="1" stroke="none" stroke-dasharray="none" stroke-dashoffset="0" stroke-miterlimit="4" stroke-opacity="1" stroke-width=".564" d="m -178.23725,-126.35227 c -12.79805,14.84106 -20.5401,34.159385 -20.5401,55.279253 0,46.763345 37.95467,84.718044 84.71801,84.718015 46.763351,0 84.718024,-37.95467 84.718018,-84.718015 0,-21.119868 -7.750872,-40.438193 -20.548925,-55.279253 z"/><ellipse id="path3537" cx="239.775" cy="374.094" fill="#00f" fill-opacity="1" stroke="none" stroke-dasharray="none" stroke-dashoffset="0" stroke-miterlimit="4" stroke-opacity="1" stroke-width="2.665" rx="129.741" ry="105.107" transform="matrix(0.1905141,0,0,0.2351658,-159.73986,-159.04906)"/><ellipse id="path3539" cx="239.775" cy="374.094" fill="#f0f" fill-opacity="1" stroke="none" stroke-dasharray="none" stroke-dashoffset="0" stroke-miterlimit="4" stroke-opacity="1" stroke-width="3.34" rx="129.741" ry="105.107" transform="matrix(0.1519766,0,0,0.1875961,-205.27031,-176.50283)"/><ellipse id="path3541" cx="239.775" cy="374.094" fill="#f0f" fill-opacity="1" stroke="none" stroke-dasharray="none" stroke-dashoffset="0" stroke-miterlimit="4" stroke-opacity="1" stroke-width="3.34" rx="129.741" ry="105.107" transform="matrix(0.1519766,0,0,0.1875961,-185.50068,-86.483491)"/><ellipse id="path3543" cx="239.775" cy="374.094" fill="#f0f" fill-opacity="1" stroke="none" stroke-dasharray="none" stroke-dashoffset="0" stroke-miterlimit="4" stroke-opacity="1" stroke-width="3.34" rx="129.741" ry="105.107" transform="matrix(0.1519766,0,0,0.1875961,-115.50197,-86.483491)"/><ellipse id="path3545" cx="239.775" cy="374.094" fill="#f0f" fill-opacity="1" stroke="none" stroke-dasharray="none" stroke-dashoffset="0" stroke-miterlimit="4" stroke-opacity="1" stroke-width="3.34" rx="129.741" ry="105.107" transform="matrix(0.1519766,0,0,0.1875961,-95.73234,-176.50283)"/></g><g id="g3547" transform="translate(614.45252,360.86653)"><path id="path3549" fill="#000" fill-opacity="1" stroke="none" stroke-dasharray="none" stroke-dashoffset="0" stroke-miterlimit="4" stroke-opacity="1" stroke-width=".564" d="m -178.23725,-126.35227 c -12.79805,14.84106 -20.5401,34.159385 -20.5401,55.279253 0,46.763345 37.95467,84.718044 84.71801,84.718015 46.763351,0 84.718024,-37.95467 84.718018,-84.718015 0,-21.119868 -7.750872,-40.438193 -20.548925,-55.279253 z"/><ellipse id="path3551" cx="239.775" cy="374.094" fill="#00f" fill-opacity="1" stroke="none" stroke-dasharray="none" stroke-dashoffset="0" stroke-miterlimit="4" stroke-opacity="1" stroke-width="2.665" rx="129.741" ry="105.107" transform="matrix(0.1905141,0,0,0.2351658,-159.73986,-159.04906)"/><ellipse id="path3553" cx="239.775" cy="374.094" fill="#f0f" fill-opacity="1" stroke="none" stroke-dasharray="none" stroke-dashoffset="0" stroke-miterlimit="4" stroke-opacity="1" stroke-width="3.34" rx="129.741" ry="105.107" transform="matrix(0.1519766,0,0,0.1875961,-205.27031,-176.50283)"/><ellipse id="path3555" cx="239.775" cy="374.094" fill="#0f0" fill-opacity="1" stroke="none" stroke-dasharray="none" stroke-dashoffset="0" stroke-miterlimit="4" stroke-opacity="1" stroke-width="3.34" rx="129.741" ry="105.107" transform="matrix(0.1519766,0,0,0.1875961,-185.50068,-86.483491)"/><ellipse id="path3557" cx="239.775" cy="374.094" fill="#0f0" fill-opacity="1" stroke="none" stroke-dasharray="none" stroke-dashoffset="0" stroke-miterlimit="4" stroke-opacity="1" stroke-width="3.34" rx="129.741" ry="105.107" transform="matrix(0.1519766,0,0,0.1875961,-115.50197,-86.483491)"/><ellipse id="path3559" cx="239.775" cy="374.094" fill="#f0f" fill-opacity="1" stroke="none" stroke-dasharray="none" stroke-dashoffset="0" stroke-miterlimit="4" stroke-opacity="1" stroke-width="3.34" rx="129.741" ry="105.107" transform="matrix(0.1519766,0,0,0.1875961,-95.73234,-176.50283)"/></g><g id="g3561" transform="translate(814.50684,360.86653)"><path id="path3563" fill="#000" fill-opacity="1" stroke="none" stroke-dasharray="none" stroke-dashoffset="0" stroke-miterlimit="4" stroke-opacity="1" stroke-width=".564" d="m -178.23725,-126.35227 c -12.79805,14.84106 -20.5401,34.159385 -20.5401,55.279253 0,46.763345 37.95467,84.718044 84.71801,84.718015 46.763351,0 84.718024,-37.95467 84.718018,-84.718015 0,-21.119868 -7.750872,-40.438193 -20.548925,-55.279253 z"/><ellipse id="path3565" cx="239.775" cy="374.094" fill="#00f" fill-opacity="1" stroke="none" stroke-dasharray="none" stroke-dashoffset="0" stroke-miterlimit="4" stroke-opacity="1" stroke-width="2.665" rx="129.741" ry="105.107" transform="matrix(0.1905141,0,0,0.2351658,-159.73986,-159.04906)"/><ellipse id="path3567" cx="239.775" cy="374.094" fill="#0f0" fill-opacity="1" stroke="none" stroke-dasharray="none" stroke-dashoffset="0" stroke-miterlimit="4" stroke-opacity="1" stroke-width="3.34" rx="129.741" ry="105.107" transform="matrix(0.1519766,0,0,0.1875961,-205.27031,-176.50283)"/><ellipse id="path3569" cx="239.775" cy="374.094" fill="#f0f" fill-opacity="1" stroke="none" stroke-dasharray="none" stroke-dashoffset="0" stroke-miterlimit="4" stroke-opacity="1" stroke-width="3.34" rx="129.741" ry="105.107" transform="matrix(0.1519766,0,0,0.1875961,-185.50068,-86.483491)"/><ellipse id="path3571" cx="239.775" cy="374.094" fill="#f0f" fill-opacity="1" stroke="none" stroke-dasharray="none" stroke-dashoffset="0" stroke-miterlimit="4" stroke-opacity="1" stroke-width="3.34" rx="129.741" ry="105.107" transform="matrix(0.1519766,0,0,0.1875961,-115.50197,-86.483491)"/><ellipse id="path3573" cx="239.775" cy="374.094" fill="#0f0" fill-opacity="1" stroke="none" stroke-dasharray="none" stroke-dashoffset="0" stroke-miterlimit="4" stroke-opacity="1" stroke-width="3.34" rx="129.741" ry="105.107" transform="matrix(0.1519766,0,0,0.1875961,-95.73234,-176.50283)"/></g><g id="g3885" transform="translate(214.3439,560.867)"><path id="path3873" fill="#000" fill-opacity="1" stroke="none" stroke-dasharray="none" stroke-dashoffset="0" stroke-miterlimit="4" stroke-opacity="1" stroke-width=".564" d="m -178.23725,-126.35227 c -12.79805,14.84106 -20.5401,34.159385 -20.5401,55.279253 0,46.763345 37.95467,84.718044 84.71801,84.718015 46.763351,0 84.718024,-37.95467 84.718018,-84.718015 0,-21.119868 -7.750872,-40.438193 -20.548925,-55.279253 z"/><ellipse id="ellipse3875" cx="239.775" cy="374.094" fill="#00f" fill-opacity="1" stroke="none" stroke-dasharray="none" stroke-dashoffset="0" stroke-miterlimit="4" stroke-opacity="1" stroke-width="2.665" rx="129.741" ry="105.107" transform="matrix(0.1905141,0,0,0.2351658,-159.73986,-159.04906)"/><ellipse id="ellipse3877" cx="239.775" cy="374.094" fill="#0f0" fill-opacity="1" stroke="none" stroke-dasharray="none" stroke-dashoffset="0" stroke-miterlimit="4" stroke-opacity="1" stroke-width="3.34" rx="129.741" ry="105.107" transform="matrix(0.1519766,0,0,0.1875961,-205.27031,-176.50283)"/><ellipse id="ellipse3879" cx="239.775" cy="374.094" fill="#0f0" fill-opacity="1" stroke="none" stroke-dasharray="none" stroke-dashoffset="0" stroke-miterlimit="4" stroke-opacity="1" stroke-width="3.34" rx="129.741" ry="105.107" transform="matrix(0.1519766,0,0,0.1875961,-185.50068,-86.483491)"/><ellipse id="ellipse3881" cx="239.775" cy="374.094" fill="#0f0" fill-opacity="1" stroke="none" stroke-dasharray="none" stroke-dashoffset="0" stroke-miterlimit="4" stroke-opacity="1" stroke-width="3.34" rx="129.741" ry="105.107" transform="matrix(0.1519766,0,0,0.1875961,-115.50197,-86.483491)"/><ellipse id="ellipse3883" cx="239.775" cy="374.094" fill="#f0f" fill-opacity="1" stroke="none" stroke-dasharray="none" stroke-dashoffset="0" stroke-miterlimit="4" stroke-opacity="1" stroke-width="3.34" rx="129.741" ry="105.107" transform="matrix(0.1519766,0,0,0.1875961,-95.73234,-176.50283)"/></g><g id="g3899" transform="translate(414.3982,560.867)"><path id="path3887" fill="#000" fill-opacity="1" stroke="none" stroke-dasharray="none" stroke-dashoffset="0" stroke-miterlimit="4" stroke-opacity="1" stroke-width=".564" d="m -178.23725,-126.35227 c -12.79805,14.84106 -20.5401,34.159385 -20.5401,55.279253 0,46.763345 37.95467,84.718044 84.71801,84.718015 46.763351,0 84.718024,-37.95467 84.718018,-84.718015 0,-21.119868 -7.750872,-40.438193 -20.548925,-55.279253 z"/><ellipse id="ellipse3889" cx="239.775" cy="374.094" fill="#00f" fill-opacity="1" stroke="none" stroke-dasharray="none" stroke-dashoffset="0" stroke-miterlimit="4" stroke-opacity="1" stroke-width="2.665" rx="129.741" ry="105.107" transform="matrix(0.1905141,0,0,0.2351658,-159.73986,-159.04906)"/><ellipse id="ellipse3891" cx="239.775" cy="374.094" fill="#0f0" fill-opacity="1" stroke="none" stroke-dasharray="none" stroke-dashoffset="0" stroke-miterlimit="4" stroke-opacity="1" stroke-width="3.34" rx="129.741" ry="105.107" transform="matrix(0.1519766,0,0,0.1875961,-205.27031,-176.50283)"/><ellipse id="ellipse3893" cx="239.775" cy="374.094" fill="#f0f" fill-opacity="1" stroke="none" stroke-dasharray="none" stroke-dashoffset="0" stroke-miterlimit="4" stroke-opacity="1" stroke-width="3.34" rx="129.741" ry="105.107" transform="matrix(0.1519766,0,0,0.1875961,-185.50068,-86.483491)"/><ellipse id="ellipse3895" cx="239.775" cy="374.094" fill="#f0f" fill-opacity="1" stroke="none" stroke-dasharray="none" stroke-dashoffset="0" stroke-miterlimit="4" stroke-opacity="1" stroke-width="3.34" rx="129.741" ry="105.107" transform="matrix(0.1519766,0,0,0.1875961,-115.50197,-86.483491)"/><ellipse id="ellipse3897" cx="239.775" cy="374.094" fill="#f0f" fill-opacity="1" stroke="none" stroke-dasharray="none" stroke-dashoffset="0" stroke-miterlimit="4" stroke-opacity="1" stroke-width="3.34" rx="129.741" ry="105.107" transform="matrix(0.1519766,0,0,0.1875961,-95.73234,-176.50283)"/></g><g id="g3913" transform="translate(614.45252,560.867)"><path id="path3901" fill="#000" fill-opacity="1" stroke="none" stroke-dasharray="none" stroke-dashoffset="0" stroke-miterlimit="4" stroke-opacity="1" stroke-width=".564" d="m -178.23725,-126.35227 c -12.79805,14.84106 -20.5401,34.159385 -20.5401,55.279253 0,46.763345 37.95467,84.718044 84.71801,84.718015 46.763351,0 84.718024,-37.95467 84.718018,-84.718015 0,-21.119868 -7.750872,-40.438193 -20.548925,-55.279253 z"/><ellipse id="ellipse3903" cx="239.775" cy="374.094" fill="#00f" fill-opacity="1" stroke="none" stroke-dasharray="none" stroke-dashoffset="0" stroke-miterlimit="4" stroke-opacity="1" stroke-width="2.665" rx="129.741" ry="105.107" transform="matrix(0.1905141,0,0,0.2351658,-159.73986,-159.04906)"/><ellipse id="ellipse3905" cx="239.775" cy="374.094" fill="#f0f" fill-opacity="1" stroke="none" stroke-dasharray="none" stroke-dashoffset="0" stroke-miterlimit="4" stroke-opacity="1" stroke-width="3.34" rx="129.741" ry="105.107" transform="matrix(0.1519766,0,0,0.1875961,-205.27031,-176.50283)"/><ellipse id="ellipse3907" cx="239.775" cy="374.094" fill="#0f0" fill-opacity="1" stroke="none" stroke-dasharray="none" stroke-dashoffset="0" stroke-miterlimit="4" stroke-opacity="1" stroke-width="3.34" rx="129.741" ry="105.107" transform="matrix(0.1519766,0,0,0.1875961,-185.50068,-86.483491)"/><ellipse id="ellipse3909" cx="239.775" cy="374.094" fill="#0f0" fill-opacity="1" stroke="none" stroke-dasharray="none" stroke-dashoffset="0" stroke-miterlimit="4" stroke-opacity="1" stroke-width="3.34" rx="129.741" ry="105.107" transform="matrix(0.1519766,0,0,0.1875961,-115.50197,-86.483491)"/><ellipse id="ellipse3911" cx="239.775" cy="374.094" fill="#0f0" fill-opacity="1" stroke="none" stroke-dasharray="none" stroke-dashoffset="0" stroke-miterlimit="4" stroke-opacity="1" stroke-width="3.34" rx="129.741" ry="105.107" transform="matrix(0.1519766,0,0,0.1875961,-95.73234,-176.50283)"/></g><g id="g3927" transform="translate(814.50684,560.867)"><path id="path3915" fill="#000" fill-opacity="1" stroke="none" stroke-dasharray="none" stroke-dashoffset="0" stroke-miterlimit="4" stroke-opacity="1" stroke-width=".564" d="m -178.23725,-126.35227 c -12.79805,14.84106 -20.5401,34.159385 -20.5401,55.279253 0,46.763345 37.95467,84.718044 84.71801,84.718015 46.763351,0 84.718024,-37.95467 84.718018,-84.718015 0,-21.119868 -7.750872,-40.438193 -20.548925,-55.279253 z"/><ellipse id="ellipse3917" cx="239.775" cy="374.094" fill="#00f" fill-opacity="1" stroke="none" stroke-dasharray="none" stroke-dashoffset="0" stroke-miterlimit="4" stroke-opacity="1" stroke-width="2.665" rx="129.741" ry="105.107" transform="matrix(0.1905141,0,0,0.2351658,-159.73986,-159.04906)"/><ellipse id="ellipse3919" cx="239.775" cy="374.094" fill="#f0f" fill-opacity="1" stroke="none" stroke-dasharray="none" stroke-dashoffset="0" stroke-miterlimit="4" stroke-opacity="1" stroke-width="3.34" rx="129.741" ry="105.107" transform="matrix(0.1519766,0,0,0.1875961,-205.27031,-176.50283)"/><ellipse id="ellipse3921" cx="239.775" cy="374.094" fill="#f0f" fill-opacity="1" stroke="none" stroke-dasharray="none" stroke-dashoffset="0" stroke-miterlimit="4" stroke-opacity="1" stroke-width="3.34" rx="129.741" ry="105.107" transform="matrix(0.1519766,0,0,0.1875961,-185.50068,-86.483491)"/><ellipse id="ellipse3923" cx="239.775" cy="374.094" fill="#f0f" fill-opacity="1" stroke="none" stroke-dasharray="none" stroke-dashoffset="0" stroke-miterlimit="4" stroke-opacity="1" stroke-width="3.34" rx="129.741" ry="105.107" transform="matrix(0.1519766,0,0,0.1875961,-115.50197,-86.483491)"/><ellipse id="ellipse3925" cx="239.775" cy="374.094" fill="#0f0" fill-opacity="1" stroke="none" stroke-dasharray="none" stroke-dashoffset="0" stroke-miterlimit="4" stroke-opacity="1" stroke-width="3.34" rx="129.741" ry="105.107" transform="matrix(0.1519766,0,0,0.1875961,-95.73234,-176.50283)"/></g><text id="text3864" x="124.129" y="-10.218" fill="#000" fill-opacity="1" stroke="none" stroke-width=".544" font-family="sans-serif" font-size="21.769" font-style="normal" font-weight="normal" letter-spacing="0" word-spacing="0" xml:space="preserve" style="line-height:1.25"><tspan id="tspan3862" x="124.129" y="-10.218" stroke-width=".544">ID = 0</tspan></text><text id="text3864-7" x="324.129" y="-10.218" fill="#000" fill-opacity="1" stroke="none" stroke-width=".544" display="inline" font-family="sans-serif" font-size="21.769" font-style="normal" font-weight="normal" letter-spacing="0" word-spacing="0" xml:space="preserve" style="line-height:1.25"><tspan id="tspan3862-5" x="324.129" y="-10.218" stroke-width=".544">ID = 1</tspan></text><text id="text3864-3" x="524.129" y="-10.218" fill="#000" fill-opacity="1" stroke="none" stroke-width=".544" display="inline" font-family="sans-serif" font-size="21.769" font-style="normal" font-weight="normal" letter-spacing="0" word-spacing="0" xml:space="preserve" style="line-height:1.25"><tspan id="tspan3862-56" x="524.129" y="-10.218" stroke-width=".544">ID = 2</tspan></text><text id="text3864-3-2" x="724.129" y="-10.218" fill="#000" fill-opacity="1" stroke="none" stroke-width=".544" display="inline" font-family="sans-serif" font-size="21.769" font-style="normal" font-weight="normal" letter-spacing="0" word-spacing="0" xml:space="preserve" style="line-height:1.25"><tspan id="tspan3862-56-9" x="724.129" y="-10.218" stroke-width=".544">ID = 3</tspan></text><text id="text3864-1" x="124.129" y="189.782" fill="#000" fill-opacity="1" stroke="none" stroke-width=".544" display="inline" font-family="sans-serif" font-size="21.769" font-style="normal" font-weight="normal" letter-spacing="0" word-spacing="0" xml:space="preserve" style="line-height:1.25"><tspan id="tspan3862-2" x="124.129" y="189.782" stroke-width=".544">ID = 4</tspan></text><text id="text3864-7-7" x="324.129" y="189.782" fill="#000" fill-opacity="1" stroke="none" stroke-width=".544" display="inline" font-family="sans-serif" font-size="21.769" font-style="normal" font-weight="normal" letter-spacing="0" word-spacing="0" xml:space="preserve" style="line-height:1.25"><tspan id="tspan3862-5-0" x="324.129" y="189.782" stroke-width=".544">ID = 5</tspan></text><text id="text3864-3-9" x="524.129" y="189.782" fill="#000" fill-opacity="1" stroke="none" stroke-width=".544" display="inline" font-family="sans-serif" font-size="21.769" font-style="normal" font-weight="normal" letter-spacing="0" word-spacing="0" xml:space="preserve" style="line-height:1.25"><tspan id="tspan3862-56-3" x="524.129" y="189.782" stroke-width=".544">ID = 6</tspan></text><text id="text3864-3-2-6" x="724.129" y="189.782" fill="#000" fill-opacity="1" stroke="none" stroke-width=".544" display="inline" font-family="sans-serif" font-size="21.769" font-style="normal" font-weight="normal" letter-spacing="0" word-spacing="0" xml:space="preserve" style="line-height:1.25"><tspan id="tspan3862-56-9-0" x="724.129" y="189.782" stroke-width=".544">ID = 7</tspan></text><text id="text3864-1-6" x="124.129" y="389.782" fill="#000" fill-opacity="1" stroke="none" stroke-width=".544" display="inline" font-family="sans-serif" font-size="21.769" font-style="normal" font-weight="normal" letter-spacing="0" word-spacing="0" xml:space="preserve" style="line-height:1.25"><tspan id="tspan3862-2-2" x="124.129" y="389.782" stroke-width=".544">ID = 8</tspan></text><text id="text3864-7-7-6" x="324.129" y="389.782" fill="#000" fill-opacity="1" stroke="none" stroke-width=".544" display="inline" font-family="sans-serif" font-size="21.769" font-style="normal" font-weight="normal" letter-spacing="0" word-spacing="0" xml:space="preserve" style="line-height:1.25"><tspan id="tspan3862-5-0-1" x="324.129" y="389.782" stroke-width=".544">ID = 9</tspan></text><text id="text3864-3-9-8" x="524.129" y="389.782" fill="#000" fill-opacity="1" stroke="none" stroke-width=".544" display="inline" font-family="sans-serif" font-size="21.769" font-style="normal" font-weight="normal" letter-spacing="0" word-spacing="0" xml:space="preserve" style="line-height:1.25"><tspan id="tspan3862-56-3-7" x="524.129" y="389.782" stroke-width=".544">ID = 10</tspan></text><text id="text3864-3-2-6-9" x="724.129" y="389.782" fill="#000" fill-opacity="1" stroke="none" stroke-width=".544" display="inline" font-family="sans-serif" font-size="21.769" font-style="normal" font-weight="normal" letter-spacing="0" word-spacing="0" xml:space="preserve" style="line-height:1.25"><tspan id="tspan3862-56-9-0-2" x="724.129" y="389.782" stroke-width=".544">ID = 11</tspan></text><text id="text3864-1-6-0" x="124.129" y="589.782" fill="#000" fill-opacity="1" stroke="none" stroke-width=".544" display="inline" font-family="sans-serif" font-size="21.769" font-style="normal" font-weight="normal" letter-spacing="0" word-spacing="0" xml:space="preserve" style="line-height:1.25"><tspan id="tspan3862-2-2-2" x="124.129" y="589.782" stroke-width=".544">ID = 12</tspan></text><text id="text3864-7-7-6-3" x="324.129" y="589.782" fill="#000" fill-opacity="1" stroke="none" stroke-width=".544" display="inline" font-family="sans-serif" font-size="21.769" font-style="normal" font-weight="normal" letter-spacing="0" word-spacing="0" xml:space="preserve" style="line-height:1.25"><tspan id="tspan3862-5-0-1-7" x="324.129" y="589.782" stroke-width=".544">ID = 13</tspan></text><text id="text3864-3-9-8-5" x="524.129" y="589.782" fill="#000" fill-opacity="1" stroke="none" stroke-width=".544" display="inline" font-family="sans-serif" font-size="21.769" font-style="normal" font-weight="normal" letter-spacing="0" word-spacing="0" xml:space="preserve" style="line-height:1.25"><tspan id="tspan3862-56-3-7-9" x="524.129" y="589.782" stroke-width=".544">ID = 14</tspan></text><text id="text3864-3-2-6-9-2" x="724.129" y="589.782" fill="#000" fill-opacity="1" stroke="none" stroke-width=".544" display="inline" font-family="sans-serif" font-size="21.769" font-style="normal" font-weight="normal" letter-spacing="0" word-spacing="0" xml:space="preserve" style="line-height:1.25"><tspan id="tspan3862-56-9-0-2-2" x="724.129" y="589.782" stroke-width=".544">ID = 15</tspan></text></g></svg>